<?xml version="1.0" encoding="UTF-8"?>
<svg version="1.1" xmlns="http://www.w3.org/2000/svg" width="200" height="200">
<path d="M0 0 C0.7668128 0.00223072 1.5336256 0.00446144 2.32367516 0.00675976 C3.13236738 0.00519977 3.94105961 0.00363978 4.77425766 0.00203252 C7.50510374 -0.00198084 10.23589499 0.00121345 12.96674156 0.00434887 C14.91598099 0.00299498 16.86522016 0.00121512 18.81445885 -0.00096118 C24.12422113 -0.00553695 29.43396409 -0.00374537 34.74372673 -0.0005821 C40.28730384 0.00194076 45.83087924 -0.00039583 51.37445641 -0.00196826 C60.68582012 -0.00379018 69.99717592 -0.00138308 79.30853844 0.00337231 C90.09046056 0.00881497 100.87236377 0.00705233 111.65428543 0.00154591 C120.8933122 -0.00298461 130.13233326 -0.00363608 139.37136078 -0.00101542 C144.89735919 0.00054769 150.4233487 0.00074018 155.94934654 -0.00255191 C161.1432414 -0.00542974 166.33711176 -0.00345658 171.53100395 0.00234234 C173.44307731 0.00367042 175.35515271 0.00327503 177.26722527 0.00107968 C179.86582282 -0.00162997 182.46434057 0.001747 185.06293297 0.00675976 C186.21315217 0.00341368 186.21315217 0.00341368 187.38660812 0 C192.57915422 0.01959356 192.57915422 0.01959356 193.69330406 1.13374341 C193.79328288 3.6860195 193.82771405 6.21129933 193.8202877 8.7641145 C193.8218477 9.57280673 193.82340769 10.38149895 193.82501495 11.214697 C193.82902831 13.94554309 193.82583402 16.67633433 193.82269859 19.40718091 C193.82405249 21.35642033 193.82583235 23.30565951 193.82800865 25.25489819 C193.83258442 30.56466048 193.83079284 35.87440343 193.82762957 41.18416607 C193.8251067 46.72774318 193.8274433 52.27131858 193.82901573 57.81489575 C193.83083764 67.12625947 193.82843055 76.43761526 193.82367516 85.74897778 C193.8182325 96.5308999 193.81999514 107.31280311 193.82550156 118.09472477 C193.83003208 127.33375154 193.83068354 136.5727726 193.82806289 145.81180012 C193.82649978 151.33779853 193.82630729 156.86378804 193.82959938 162.38978589 C193.8324772 167.58368074 193.83050405 172.7775511 193.82470512 177.9714433 C193.82337705 179.88351665 193.82377244 181.79559205 193.82596779 183.70766461 C193.82867743 186.30626217 193.82530046 188.90477992 193.8202877 191.50337231 C193.82251843 192.27018511 193.82474915 193.03699791 193.82704747 193.82704747 C193.80745391 199.01959356 193.80745391 199.01959356 192.69330406 200.13374341 C189.61875645 200.22906668 186.56671249 200.2592572 183.49188805 200.2472688 C182.04326378 200.24748784 182.04326378 200.24748784 180.56537437 200.2477113 C177.35669308 200.24701175 174.14806903 200.23921737 170.93939781 200.23139966 C168.72122288 200.22953563 166.50304754 200.22811165 164.28487206 200.22711194 C158.43390335 200.22328556 152.58295929 200.21345426 146.73200035 200.20240796 C140.76663102 200.1921964 134.80125773 200.18761487 128.83588219 200.18257153 C117.12167862 200.1718321 105.40749339 200.15475425 93.69330406 200.13374341 C94.01168349 198.52693291 94.33088121 196.92028454 94.65042686 195.31370556 C94.82809278 194.41898604 95.00575871 193.52426651 95.18880844 192.60243428 C95.71143409 190.04502622 96.30760257 187.52241739 96.98236656 185.00093091 C97.20150719 184.17593091 97.42064781 183.35093091 97.64642906 182.50093091 C97.86814781 181.67850903 98.08986656 180.85608716 98.31830406 180.00874341 C98.54775719 179.14764966 98.77721031 178.28655591 99.01361656 177.39936841 C99.57075743 175.31009014 100.13162783 173.22180697 100.69330406 171.13374341 C99.34583092 171.14159863 99.34583092 171.14159863 97.97113609 171.14961255 C94.64267907 171.16664066 91.31426825 171.17918678 87.98578453 171.18867505 C86.54437086 171.19370814 85.1029623 171.20053513 83.66156578 171.20918286 C81.59140321 171.22129324 79.52130805 171.22698188 77.45111656 171.23139966 C76.20475426 171.23663647 74.95839195 171.24187329 73.67426109 171.2472688 C70.69330406 171.13374341 70.69330406 171.13374341 68.69330406 170.13374341 C68.75389 171.23975903 68.81447594 172.34577466 68.87689781 173.48530591 C68.87572604 178.80278412 67.36822894 183.48329102 65.75580406 188.50874341 C65.47801109 189.40979809 65.20021812 190.31085278 64.91400719 191.23921216 C62.89407291 197.73220571 62.89407291 197.73220571 61.69330406 200.13374341 C47.17330406 200.13374341 32.65330406 200.13374341 17.69330406 200.13374341 C20.05453594 190.68881588 22.41162692 181.33891918 25.16205406 172.01655591 C25.4794001 170.93098401 25.79674614 169.84541211 26.12370872 168.72694409 C26.79769747 166.4222018 27.47300606 164.1178451 28.14957237 161.81385815 C29.93271428 155.74019557 31.70490028 149.66333447 33.47846031 143.58686841 C33.83412575 142.36921795 34.18979118 141.1515675 34.55623436 139.89701855 C37.68377537 129.18361549 40.78155797 118.46187176 43.85150719 107.7318269 C44.36779691 105.92776472 44.88487675 104.12392846 45.40277672 102.32032788 C46.11497176 99.83944925 46.82451068 97.35782781 47.53314781 94.87593091 C47.73967476 94.15766125 47.94620171 93.4393916 48.15898705 92.6993562 C49.15956202 89.18102761 49.97429277 85.72879987 50.69330406 82.13374341 C35.34830406 82.62874341 35.34830406 82.62874341 19.69330406 83.13374341 C18.70330406 87.09374341 17.71330406 91.05374341 16.69330406 95.13374341 C16.06800525 97.39063659 15.42809812 99.64361732 14.7638607 101.88935864 C14.24300644 103.6569579 14.24300644 103.6569579 13.71162987 105.46026623 C13.16308594 107.30764134 13.16308594 107.30764134 12.60346031 109.19233716 C12.21356827 110.51161973 11.82387841 111.83096207 11.43437767 113.15036023 C10.62319513 115.89633041 9.81041253 118.64181948 8.99628258 121.38691723 C7.96434356 124.86647296 6.93519935 128.34684684 5.9071188 131.82754433 C4.91104209 135.19943079 3.91355017 138.57089812 2.91596031 141.94233716 C2.55228859 143.17189633 2.18861687 144.4014555 1.81392479 145.66827404 C-0.51023102 153.50560734 -2.88724923 161.325305 -5.30669594 169.13374341 C-5.63669594 169.13374341 -5.96669594 169.13374341 -6.30669594 169.13374341 C-6.33002274 147.24653677 -6.34767404 125.35933217 -6.35850811 103.47211564 C-6.36367153 93.31024841 -6.37071511 83.14838889 -6.38213539 72.98652661 C-6.39208082 64.13280715 -6.39854903 55.27909326 -6.40078443 46.42536837 C-6.40209178 41.73436806 -6.40517915 37.04338371 -6.41242599 32.3523885 C-6.41918398 27.94235088 -6.42131335 23.5323359 -6.41980362 19.12229359 C-6.42008005 17.49886718 -6.42208648 15.87544005 -6.42590141 14.25201809 C-6.43083522 12.0452929 -6.42969541 9.83865457 -6.42695045 7.63192761 C-6.42787225 6.39395963 -6.42879404 5.15599165 -6.42974377 3.8805095 C-6.21611927 -0.88817705 -4.26747215 0.01610288 0 0 Z M30.69330406 44.13374341 C29.51455636 46.6584831 29.51455636 46.6584831 28.77142906 49.57124341 C28.46849937 50.63085278 28.16556969 51.69046216 27.85346031 52.78218091 C27.55310875 53.88819653 27.25275719 54.99421216 26.94330406 56.13374341 C26.62748375 57.23975903 26.31166344 58.34577466 25.98627281 59.48530591 C24.28453874 65.22539965 24.28453874 65.22539965 23.69330406 71.13374341 C26.37765284 72.47591779 28.4683354 72.26336026 31.47064781 72.26655591 C33.20024742 72.2684895 33.20024742 72.2684895 34.96478844 72.27046216 C36.77946617 72.26466137 36.77946617 72.26466137 38.63080406 72.25874341 C40.43968102 72.26454419 40.43968102 72.26454419 42.28510094 72.27046216 C43.43945641 72.26917309 44.59381187 72.26788403 45.78314781 72.26655591 C46.84396568 72.26542798 47.90478355 72.26430005 48.99774742 72.26313794 C51.79304846 72.25070465 51.79304846 72.25070465 54.69330406 71.13374341 C55.63330958 69.39544494 55.63330958 69.39544494 56.22846031 67.23139966 C56.47966637 66.42742749 56.73087242 65.62345532 56.98969078 64.79512036 C57.24250816 63.93749096 57.49532555 63.07986157 57.75580406 62.19624341 C58.01893394 61.33410229 58.28206383 60.47196118 58.55316734 59.58369458 C60.28345638 53.81370811 61.7179755 48.08324764 62.69330406 42.13374341 C58.3645713 39.96937703 52.57290924 40.90408396 47.81830406 40.88374341 C46.02199547 40.85280591 46.02199547 40.85280591 44.18939781 40.82124341 C43.038265 40.81608716 41.88713219 40.81093091 40.70111656 40.80561841 C39.64553551 40.7962727 38.58995445 40.786927 37.50238609 40.77729809 C34.23738714 41.19159485 32.96322355 41.76662333 30.69330406 44.13374341 Z M72.69330406 44.13374341 C71.63046243 46.6573914 71.63046243 46.6573914 70.83392906 49.53608716 C70.523265 50.59118481 70.21260094 51.64628247 69.89252281 52.73335278 C69.42265953 54.38560864 69.42265953 54.38560864 68.94330406 56.07124341 C68.61459312 57.16888012 68.28588219 58.26651684 67.94721031 59.39741528 C67.6417025 60.453802 67.33619469 61.51018872 67.02142906 62.59858716 C66.74202477 63.5640144 66.46262047 64.52944165 66.17474937 65.52412426 C65.68830318 68.16085011 65.81210187 69.63368274 66.69330406 72.13374341 C67.85116417 72.14776196 67.85116417 72.14776196 69.03241539 72.16206372 C72.52419988 72.21569046 76.01463337 72.29935357 79.50580406 72.38374341 C81.32821617 72.40501294 81.32821617 72.40501294 83.18744469 72.42671216 C84.35082359 72.45893872 85.5142025 72.49116528 86.71283531 72.52436841 C87.78638268 72.54531567 88.85993004 72.56626294 89.96600914 72.58784497 C92.69330406 73.13374341 92.69330406 73.13374341 94.40181541 74.88627636 C95.98720508 77.64519416 95.83571223 78.59428888 95.08441734 81.6391145 C94.87351463 82.52057141 94.66261192 83.40202832 94.44531822 84.31019604 C94.19715355 85.24196667 93.94898888 86.1737373 93.69330406 87.13374341 C93.4511013 88.06406384 93.20889854 88.99438427 92.95935631 89.95289624 C92.14524077 92.99272487 91.29511965 96.02054468 90.43549156 99.04780591 C90.12757683 100.14345868 89.81966209 101.23911145 89.50241661 102.36796582 C88.52788882 105.83255826 87.54818509 109.29566166 86.56830406 112.75874341 C85.90259551 115.12192779 85.23722755 117.48520814 84.57221031 119.84858716 C82.94984414 125.6114213 81.32323741 131.37304524 79.69330406 137.13374341 C84.25568337 137.22093972 88.81784792 137.27420262 93.38080406 137.32124341 C94.67437828 137.34638012 95.9679525 137.37151684 97.30072594 137.39741528 C98.54789391 137.40708325 99.79506187 137.41675122 101.08002281 137.42671216 C102.2268856 137.4424226 103.3737484 137.45813305 104.55536461 137.47431958 C108.21702167 137.07690173 109.91093893 136.55972721 112.69330406 134.13374341 C113.83812511 131.48460822 114.64859537 129.14440304 115.38471031 126.38374341 C115.7253627 125.19903203 115.7253627 125.19903203 116.07289696 123.99038708 C116.81940309 121.37643623 117.53807237 118.75572827 118.25580406 116.13374341 C118.76818579 114.30936012 119.28204348 112.48539078 119.79730797 110.66181958 C120.88081581 106.81701943 121.95288006 102.96924171 123.01898766 99.11958325 C124.41808367 94.08796718 125.86656601 89.07218278 127.33458519 84.06028759 C128.4821176 80.13945383 129.61513944 76.21451123 130.74576378 72.2887727 C131.29234121 70.39991401 131.84400862 68.51252047 132.40085411 66.62666333 C133.1788309 63.98369295 133.93468176 61.33532013 134.68549156 58.68452466 C134.92020668 57.90498929 135.1549218 57.12545392 135.3967495 56.32229626 C136.68531759 51.67110446 137.10178391 48.57736829 134.69330406 44.13374341 C131.12558779 41.52798029 128.60383678 40.7567105 124.21625328 40.74555981 C122.60966347 40.73137509 122.60966347 40.73137509 120.97061729 40.71690381 C119.8246508 40.7229765 118.67868431 40.72904919 117.49799156 40.73530591 C116.31359489 40.73243573 115.12919823 40.72956555 113.90891075 40.7266084 C111.40913985 40.72456935 108.90935293 40.73008801 106.40961266 40.74263012 C102.57543037 40.75871351 98.74229774 40.74276036 94.90814781 40.72358716 C92.47976006 40.72556906 90.05137297 40.72941163 87.62299156 40.73530591 C86.47297661 40.72923321 85.32296165 40.72316052 84.13809776 40.71690381 C82.54096443 40.73108853 82.54096443 40.73108853 80.91156578 40.74555981 C79.97400444 40.74794659 79.0364431 40.75033337 78.07047081 40.75279248 C75.24882988 41.20497225 74.39859417 41.8843609 72.69330406 44.13374341 Z M44.69330406 141.13374341 C43.50965698 143.06792547 43.50965698 143.06792547 42.92767906 145.30171216 C42.67760094 146.113177 42.42752281 146.92464184 42.16986656 147.76069653 C41.93010094 148.605677 41.69033531 149.45065747 41.44330406 150.32124341 C41.18806969 151.14688794 40.93283531 151.97253247 40.66986656 152.82319653 C39.14405451 157.91860571 38.1020617 162.8259052 37.69330406 168.13374341 C39.57961949 170.02005884 42.83531099 169.37639633 45.35346031 169.45014966 C46.35015991 169.4813213 46.35015991 169.4813213 47.36699486 169.51312268 C49.4964895 169.57867999 51.62611075 169.63753126 53.75580406 169.69624341 C55.19657254 169.7394228 56.63732805 169.78303689 58.07806969 169.82710278 C61.61634446 169.93436733 65.15476275 170.03561711 68.69330406 170.13374341 C69.97855199 165.89895782 71.26020731 161.66310698 72.53851891 157.42622387 C72.97405119 155.98451783 73.41057031 154.54310953 73.84808922 153.10200512 C74.47616592 151.03262768 75.10070612 148.96221152 75.72455406 146.89155591 C76.10160484 145.6451936 76.47865562 144.3988313 76.86713219 143.11470044 C77.78233142 140.32807312 77.78233142 140.32807312 77.69330406 138.13374341 C73.13092475 138.04654709 68.5687602 137.99328419 64.00580406 137.94624341 C62.71222984 137.92110669 61.41865562 137.89596997 60.08588219 137.87007153 C58.83871422 137.86040356 57.59154625 137.85073559 56.30658531 137.84077466 C55.15972252 137.82506421 54.01285973 137.80935376 52.83124352 137.79316723 C49.28855907 138.17767239 47.47583535 138.9272601 44.69330406 141.13374341 Z " fill="#0000ED" transform="translate(6.306695938110352,-0.13374340534210205)"/>
<path d="M0 0 C4.53897705 -0.02465392 9.07791543 -0.04283789 13.61694336 -0.05493164 C15.16219766 -0.0599714 16.70744716 -0.0668032 18.25268555 -0.07543945 C20.46925029 -0.08752076 22.68575218 -0.09323173 24.90234375 -0.09765625 C25.5971434 -0.10281754 26.29194305 -0.10797882 27.00779724 -0.11329651 C28.6722933 -0.11349277 30.33665499 -0.06189129 32 0 C32.495 0.495 32.495 0.495 33 1 C32.90903444 3.86688248 32.76232012 6.70300515 32.5625 9.5625 C32.51029297 10.36880859 32.45808594 11.17511719 32.40429688 12.00585938 C32.27422624 14.00421738 32.13770944 16.00215386 32 18 C33.70840281 16.36587557 34.93453047 15.13093906 36 13 C36.66 13 37.32 13 38 13 C38.33 9.7 38.66 6.4 39 3 C39.99 3 40.98 3 42 3 C40.12538864 10.75407426 38.04551759 18.42011507 35.76953125 26.06640625 C34.87313378 28.978163 34.87313378 28.978163 35 32 C36.15000488 32.00616333 36.15000488 32.00616333 37.32324219 32.01245117 C40.79961045 32.04536135 44.27422021 32.11600453 47.75 32.1875 C49.55984375 32.19620117 49.55984375 32.19620117 51.40625 32.20507812 C53.14648438 32.24858398 53.14648438 32.24858398 54.921875 32.29296875 C55.99018555 32.3086792 57.05849609 32.32438965 58.15917969 32.34057617 C61 33 61 33 63.50488281 34.91918945 C65.79408383 39.63627431 64.38788331 43.10738042 63 48 C62.75650818 48.91622131 62.51301636 49.83244263 62.262146 50.77642822 C61.45367321 53.7591811 60.60306739 56.72727945 59.7421875 59.6953125 C59.43427277 60.76876923 59.12635803 61.84222595 58.80911255 62.94821167 C57.83482476 66.3415659 56.85500829 69.73329398 55.875 73.125 C55.20926785 75.4399985 54.54389969 77.7551017 53.87890625 80.0703125 C52.25680963 85.71475882 50.63018356 91.3578843 49 97 C53.41661151 97.05804281 57.83312496 97.09361104 62.25 97.125 C64.13138672 97.15013672 64.13138672 97.15013672 66.05078125 97.17578125 C67.85869141 97.18544922 67.85869141 97.18544922 69.703125 97.1953125 C70.81333008 97.20578613 71.92353516 97.21625977 73.06738281 97.22705078 C75.98658923 97.0010383 77.61692421 96.67367902 80 95 C81.29231642 91.95800528 81.29231642 91.95800528 82 89 C82.6875 90.6875 82.6875 90.6875 83 93 C81.85213059 95.24356294 80.7904233 97.2095767 79 99 C77.38837643 99.15773018 75.77034774 99.25104251 74.15234375 99.31640625 C73.15396484 99.35830078 72.15558594 99.40019531 71.12695312 99.44335938 C70.07443359 99.48267578 69.02191406 99.52199219 67.9375 99.5625 C66.39932617 99.62727539 66.39932617 99.62727539 64.83007812 99.69335938 C60.34161461 99.87427633 55.87110883 100.02067904 51.37890625 99.96484375 C48.13106704 99.75201493 48.13106704 99.75201493 46 101 C46 100.34 46 99.68 46 99 C41.41617026 99.10981906 36.83316568 99.2404648 32.25 99.375 C30.94804688 99.4059375 29.64609375 99.436875 28.3046875 99.46875 C27.05429688 99.50742188 25.80390625 99.54609375 24.515625 99.5859375 C23.36352539 99.6173584 22.21142578 99.6487793 21.02441406 99.68115234 C18.08404273 99.99113983 16.38258371 100.27518901 14 102 C12.92942173 103.85246221 12.92942173 103.85246221 12.33203125 106.0703125 C12.07873047 106.885 11.82542969 107.6996875 11.56445312 108.5390625 C11.31630859 109.39242187 11.06816406 110.24578125 10.8125 111.125 C10.55275391 111.95515625 10.29300781 112.7853125 10.02539062 113.640625 C8.47135243 118.76453387 7.51074563 123.67101549 7 129 C8.30988892 129.03758423 8.30988892 129.03758423 9.64624023 129.07592773 C12.87602552 129.17087709 16.10564154 129.27012029 19.33520508 129.37231445 C20.73489199 129.41571434 22.13463359 129.45738564 23.53442383 129.49731445 C25.54261495 129.55489445 27.55061149 129.61914 29.55859375 129.68359375 C31.37315063 129.73858032 31.37315063 129.73858032 33.22436523 129.79467773 C36 130 36 130 37 131 C37.4800796 137.66015192 36.08795063 143.06226829 34.0625 149.375 C33.78470703 150.27605469 33.50691406 151.17710937 33.22070312 152.10546875 C31.20076885 158.5984623 31.20076885 158.5984623 30 161 C15.48 161 0.96 161 -14 161 C-11.63876812 151.55507247 -9.28167714 142.20517578 -6.53125 132.8828125 C-6.21390396 131.7972406 -5.89655792 130.7116687 -5.56959534 129.59320068 C-4.89560659 127.28845839 -4.220298 124.9841017 -3.54373169 122.68011475 C-1.76058978 116.60645217 0.01159622 110.52959106 1.78515625 104.453125 C2.14082169 103.23547455 2.49648712 102.0178241 2.8629303 100.76327515 C5.99047131 90.04987208 9.0882539 79.32812836 12.15820312 68.5980835 C12.67449285 66.79402132 13.19157268 64.99018505 13.70947266 63.18658447 C14.4216677 60.70570584 15.13120662 58.2240844 15.83984375 55.7421875 C16.0463707 55.02391785 16.25289764 54.30564819 16.46568298 53.56561279 C17.46625796 50.04728421 18.28098871 46.59505646 19 43 C3.655 43.495 3.655 43.495 -12 44 C-12.99 47.96 -13.98 51.92 -15 56 C-15.62529881 58.25689318 -16.26520594 60.50987391 -16.92944336 62.75561523 C-17.45029762 64.52321449 -17.45029762 64.52321449 -17.98167419 66.32652283 C-18.53021812 68.17389793 -18.53021812 68.17389793 -19.08984375 70.05859375 C-19.4797358 71.37787632 -19.86942565 72.69721867 -20.25892639 74.01661682 C-21.07010894 76.76258701 -21.88289154 79.50807608 -22.69702148 82.25317383 C-23.7289605 85.73272956 -24.75810472 89.21310343 -25.78618526 92.69380093 C-26.78226197 96.06568739 -27.77975389 99.43715471 -28.77734375 102.80859375 C-29.14101547 104.03815292 -29.50468719 105.2677121 -29.87937927 106.53453064 C-32.20353509 114.37186394 -34.5805533 122.1915616 -37 130 C-37.33 130 -37.66 130 -38 130 C-38 122.08 -38 114.16 -38 106 C-37.01 105.505 -37.01 105.505 -36 105 C-35.01 105.33 -34.02 105.66 -33 106 C-32.01 100.06 -32.01 100.06 -31 94 C-30.34 94 -29.68 94 -29 94 C-28.87625 93.278125 -28.7525 92.55625 -28.625 91.8125 C-28 89 -28 89 -27 86.5625 C-25.89092718 83.72050091 -25.42056764 81.01406808 -25 78 C-25.66 77.67 -26.32 77.34 -27 77 C-26.67 75.68 -26.34 74.36 -26 73 C-25.01 73 -24.02 73 -23 73 C-22.95101563 72.40832031 -22.90203125 71.81664063 -22.8515625 71.20703125 C-22.42797367 66.73013552 -21.71147991 63.17173228 -20 59 C-19.0787123 54.46800899 -18.73059655 50.5134345 -20 46 C-18.68 46.33 -17.36 46.66 -16 47 C-15.773125 46.236875 -15.54625 45.47375 -15.3125 44.6875 C-13.62708948 41.23642131 -12.50067588 40.58751581 -9 39 C-5.77536071 38.52942827 -2.56764397 38.44368427 0.6875 38.375 C2.39985561 38.32407493 4.11210945 38.26956225 5.82421875 38.2109375 C6.95476685 38.18459229 6.95476685 38.18459229 8.1081543 38.15771484 C10.08839168 38.11053788 10.08839168 38.11053788 12 37 C11.37432129 36.97494385 10.74864258 36.9498877 10.10400391 36.92407227 C7.27745381 36.80824727 4.45124831 36.68546015 1.625 36.5625 C0.14773437 36.50352539 0.14773437 36.50352539 -1.359375 36.44335938 C-2.30039062 36.40146484 -3.24140625 36.35957031 -4.2109375 36.31640625 C-5.08024902 36.27974854 -5.94956055 36.24309082 -6.84521484 36.20532227 C-9 36 -9 36 -11 35 C-11.20057699 30.28644074 -10.75497555 26.25136157 -9.6328125 21.67578125 C-9.1420456 19.60062492 -8.71102566 17.5112951 -8.3046875 15.41796875 C-7.93730469 13.54044922 -7.93730469 13.54044922 -7.5625 11.625 C-7.33691406 10.44164062 -7.11132812 9.25828125 -6.87890625 8.0390625 C-6.0136698 5.04726712 -5.54630955 3.73924829 -3 2 C-2.01 2 -1.02 2 0 2 C0 1.34 0 0.68 0 0 Z M-1 5 C-2.17874771 7.52473969 -2.17874771 7.52473969 -2.921875 10.4375 C-3.22480469 11.49710938 -3.52773438 12.55671875 -3.83984375 13.6484375 C-4.14019531 14.75445312 -4.44054688 15.86046875 -4.75 17 C-5.06582031 18.10601562 -5.38164063 19.21203125 -5.70703125 20.3515625 C-7.40876533 26.09165624 -7.40876533 26.09165624 -8 32 C-5.31565123 33.34217439 -3.22496866 33.12961685 -0.22265625 33.1328125 C1.50694336 33.13474609 1.50694336 33.13474609 3.27148438 33.13671875 C5.08616211 33.13091797 5.08616211 33.13091797 6.9375 33.125 C8.74637695 33.13080078 8.74637695 33.13080078 10.59179688 33.13671875 C11.74615234 33.13542969 12.90050781 33.13414063 14.08984375 33.1328125 C15.15066162 33.13168457 16.21147949 33.13055664 17.30444336 33.12939453 C20.0997444 33.11696125 20.0997444 33.11696125 23 32 C23.94000551 30.26170154 23.94000551 30.26170154 24.53515625 28.09765625 C24.7863623 27.29368408 25.03756836 26.48971191 25.29638672 25.66137695 C25.5492041 24.80374756 25.80202148 23.94611816 26.0625 23.0625 C26.32562988 22.20035889 26.58875977 21.33821777 26.85986328 20.44995117 C28.59015231 14.67996471 30.02467144 8.94950423 31 3 C26.67126724 0.83563362 20.87960518 1.77034056 16.125 1.75 C14.32869141 1.7190625 14.32869141 1.7190625 12.49609375 1.6875 C11.34496094 1.68234375 10.19382812 1.6771875 9.0078125 1.671875 C7.95223145 1.6625293 6.89665039 1.65318359 5.80908203 1.64355469 C2.54408308 2.05785144 1.26991949 2.63287992 -1 5 Z " fill="#0100EA" transform="translate(38,39)"/>
<path d="M0 0 C2.4755848 2.4755848 2.92228164 4.69948753 4 8 C5.59959844 11.15110403 5.59959844 11.15110403 7.97119141 11.43237305 C8.75671387 11.45855713 9.54223633 11.48474121 10.3515625 11.51171875 C11.20234375 11.54716797 12.053125 11.58261719 12.9296875 11.61914062 C13.81914063 11.64169922 14.70859375 11.66425781 15.625 11.6875 C16.97078125 11.73874023 16.97078125 11.73874023 18.34375 11.79101562 C20.56237538 11.87362402 22.7805994 11.94272719 25 12 C25 12.66 25 13.32 25 14 C27.64 14 30.28 14 33 14 C31.90533539 22.75731684 29.91451286 31.38469215 28 40 C14.8 40 1.6 40 -12 40 C-11.32936501 36.64682505 -10.70819855 33.99747377 -9.5625 30.875 C-8.38886481 27.46694398 -7.63178862 24.18305384 -7.0625 20.625 C-5.84649588 13.35963085 -3.39494927 6.53224614 0 0 Z " fill="#0000EC" transform="translate(39,160)"/>
<path d="M0 0 C1.3185498 0.01981934 2.63709961 0.03963867 3.99560547 0.06005859 C4.69926239 0.06476166 5.40291931 0.06946472 6.12789917 0.0743103 C8.37386145 0.09565413 10.61746153 0.15227872 12.86279297 0.20849609 C14.38230207 0.22500194 15.90183626 0.23935035 17.42138672 0.25146484 C28.54211671 0.38781983 28.54211671 0.38781983 29.73779297 1.58349609 C29.6468274 4.45037857 29.50011309 7.28650124 29.30029297 10.14599609 C29.24808594 10.95230469 29.19587891 11.75861328 29.14208984 12.58935547 C29.0120192 14.58771347 28.87550241 16.58564995 28.73779297 18.58349609 C30.44619578 16.94937166 31.67232344 15.71443516 32.73779297 13.58349609 C33.39779297 13.58349609 34.05779297 13.58349609 34.73779297 13.58349609 C35.06779297 10.28349609 35.39779297 6.98349609 35.73779297 3.58349609 C36.72779297 3.58349609 37.71779297 3.58349609 38.73779297 3.58349609 C36.86318161 11.33757036 34.78331056 19.00361117 32.50732422 26.64990234 C31.61092675 29.5616591 31.61092675 29.5616591 31.73779297 32.58349609 C32.50446289 32.58760498 33.27113281 32.59171387 34.06103516 32.59594727 C37.53740342 32.62885745 41.01201318 32.69950062 44.48779297 32.77099609 C46.29763672 32.77969727 46.29763672 32.77969727 48.14404297 32.78857422 C49.88427734 32.83208008 49.88427734 32.83208008 51.65966797 32.87646484 C52.72797852 32.89217529 53.79628906 32.90788574 54.89697266 32.92407227 C57.73779297 33.58349609 57.73779297 33.58349609 60.24267578 35.50268555 C62.5318768 40.2197704 61.12567628 43.69087651 59.73779297 48.58349609 C59.49430115 49.49971741 59.25080933 50.41593872 58.99993896 51.35992432 C58.19146618 54.34267719 57.34086036 57.31077554 56.47998047 60.27880859 C56.17206573 61.35226532 55.864151 62.42572205 55.54690552 63.53170776 C54.57261773 66.92506199 53.59280126 70.31679007 52.61279297 73.70849609 C51.94706082 76.02349459 51.28169266 78.33859779 50.61669922 80.65380859 C48.9946026 86.29825492 47.36797652 91.94138039 45.73779297 97.58349609 C50.15440448 97.64153891 54.57091792 97.67710713 58.98779297 97.70849609 C60.86917969 97.73363281 60.86917969 97.73363281 62.78857422 97.75927734 C64.59648437 97.76894531 64.59648437 97.76894531 66.44091797 97.77880859 C67.55112305 97.78928223 68.66132812 97.79975586 69.80517578 97.81054688 C72.72438219 97.58453439 74.35471718 97.25717512 76.73779297 95.58349609 C78.03010939 92.54150137 78.03010939 92.54150137 78.73779297 89.58349609 C79.42529297 91.27099609 79.42529297 91.27099609 79.73779297 93.58349609 C78.58992356 95.82705903 77.52821627 97.79307279 75.73779297 99.58349609 C74.1261694 99.74122627 72.50814071 99.8345386 70.89013672 99.89990234 C69.89175781 99.94179687 68.89337891 99.98369141 67.86474609 100.02685547 C66.81222656 100.06617188 65.75970703 100.10548828 64.67529297 100.14599609 C63.13711914 100.21077148 63.13711914 100.21077148 61.56787109 100.27685547 C57.07940757 100.45777242 52.6089018 100.60417513 48.11669922 100.54833984 C44.86886001 100.33551102 44.86886001 100.33551102 42.73779297 101.58349609 C42.73779297 100.92349609 42.73779297 100.26349609 42.73779297 99.58349609 C38.15396322 99.69331515 33.57095865 99.8239609 28.98779297 99.95849609 C27.68583984 99.98943359 26.38388672 100.02037109 25.04248047 100.05224609 C23.79208984 100.09091797 22.54169922 100.12958984 21.25341797 100.16943359 C20.10131836 100.20085449 18.94921875 100.23227539 17.76220703 100.26464844 C14.81536891 100.57531768 13.11590681 100.83954595 10.73779297 102.58349609 C9.64893034 104.56918131 9.64893034 104.56918131 9.03466797 106.93505859 C8.64794922 108.21123047 8.64794922 108.21123047 8.25341797 109.51318359 C8.00076172 110.40263672 7.74810547 111.29208984 7.48779297 112.20849609 C7.21966797 113.10568359 6.95154297 114.00287109 6.67529297 114.92724609 C6.01549434 117.14228434 5.37038121 119.36056327 4.73779297 121.58349609 C4.40779297 121.58349609 4.07779297 121.58349609 3.73779297 121.58349609 C3.36877247 110.061856 3.36877247 110.061856 5.73779297 104.58349609 C6.72779297 104.58349609 7.71779297 104.58349609 8.73779297 104.58349609 C8.92341797 103.65537109 8.92341797 103.65537109 9.11279297 102.70849609 C9.73779297 100.58349609 9.73779297 100.58349609 11.73779297 98.58349609 C14.17524194 98.40861355 16.49715377 98.35172204 18.93310547 98.38818359 C19.64054901 98.39101349 20.34799255 98.39384338 21.07687378 98.39675903 C23.33901807 98.40796472 25.60076812 98.4330693 27.86279297 98.45849609 C29.39533934 98.46852542 30.92789191 98.47765136 32.46044922 98.48583984 C36.21971598 98.50790523 39.97868761 98.54243714 43.73779297 98.58349609 C43.84736328 97.41431641 43.95693359 96.24513672 44.06982422 95.04052734 C44.22934018 93.49228416 44.38953211 91.94411051 44.55029297 90.39599609 C44.62054688 89.62707031 44.69080078 88.85814453 44.76318359 88.06591797 C45.25450711 83.48678282 46.04049062 80.43479893 48.73779297 76.58349609 C53.84357081 64.37402735 56.51209358 51.56674254 58.73779297 38.58349609 C58.07779297 38.58349609 57.41779297 38.58349609 56.73779297 38.58349609 C56.73779297 37.92349609 56.73779297 37.26349609 56.73779297 36.58349609 C43.86779297 36.08849609 43.86779297 36.08849609 30.73779297 35.58349609 C30.73779297 34.92349609 30.73779297 34.26349609 30.73779297 33.58349609 C29.74779297 33.58349609 28.75779297 33.58349609 27.73779297 33.58349609 C27.59493583 26.15492467 27.59493583 26.15492467 28.73779297 22.58349609 C28.07779297 22.58349609 27.41779297 22.58349609 26.73779297 22.58349609 C26.63466797 23.34662109 26.53154297 24.10974609 26.42529297 24.89599609 C25.67410974 27.83243962 24.95469639 28.63262109 22.73779297 30.58349609 C22.07779297 31.57349609 21.41779297 32.56349609 20.73779297 33.58349609 C17.40829297 34.69332943 14.89620654 34.71285361 11.39013672 34.71630859 C10.14554688 34.71759766 8.90095703 34.71888672 7.61865234 34.72021484 C6.31734375 34.71634766 5.01603516 34.71248047 3.67529297 34.70849609 C2.37011719 34.71236328 1.06494141 34.71623047 -0.27978516 34.72021484 C-2.14473633 34.71828125 -2.14473633 34.71828125 -4.04736328 34.71630859 C-5.19084229 34.71518066 -6.33432129 34.71405273 -7.51245117 34.71289062 C-10.26220703 34.58349609 -10.26220703 34.58349609 -12.26220703 33.58349609 C-11.24824325 20.32191722 -11.24824325 20.32191722 -8.19970703 14.58349609 C-7.06355919 12.42575056 -7.06355919 12.42575056 -6.82470703 9.14599609 C-6.02852861 4.10353274 -5.38769052 0.96367163 0 0 Z M-4.26220703 5.58349609 C-5.44095474 8.10823579 -5.44095474 8.10823579 -6.18408203 11.02099609 C-6.48701172 12.08060547 -6.78994141 13.14021484 -7.10205078 14.23193359 C-7.40240234 15.33794922 -7.70275391 16.44396484 -8.01220703 17.58349609 C-8.32802734 18.68951172 -8.64384766 19.79552734 -8.96923828 20.93505859 C-10.67097236 26.67515234 -10.67097236 26.67515234 -11.26220703 32.58349609 C-8.57785826 33.92567048 -6.48717569 33.71311294 -3.48486328 33.71630859 C-1.75526367 33.71824219 -1.75526367 33.71824219 0.00927734 33.72021484 C1.82395508 33.71441406 1.82395508 33.71441406 3.67529297 33.70849609 C5.48416992 33.71429688 5.48416992 33.71429688 7.32958984 33.72021484 C8.48394531 33.71892578 9.63830078 33.71763672 10.82763672 33.71630859 C11.88845459 33.71518066 12.94927246 33.71405273 14.04223633 33.71289062 C16.83753737 33.70045734 16.83753737 33.70045734 19.73779297 32.58349609 C20.67779848 30.84519763 20.67779848 30.84519763 21.27294922 28.68115234 C21.52415527 27.87718018 21.77536133 27.07320801 22.03417969 26.24487305 C22.28699707 25.38724365 22.53981445 24.52961426 22.80029297 23.64599609 C23.06342285 22.78385498 23.32655273 21.92171387 23.59765625 21.03344727 C25.32794528 15.2634608 26.76246441 9.53300032 27.73779297 3.58349609 C23.40906021 1.41912971 17.61739815 2.35383665 12.86279297 2.33349609 C11.06648438 2.30255859 11.06648438 2.30255859 9.23388672 2.27099609 C8.08275391 2.26583984 6.93162109 2.26068359 5.74560547 2.25537109 C4.69002441 2.24602539 3.63444336 2.23667969 2.546875 2.22705078 C-0.71812395 2.64134754 -1.99228754 3.21637602 -4.26220703 5.58349609 Z " fill="#1412AE" transform="translate(41.26220703125,38.41650390625)"/>
<path d="M0 0 C1.27552734 0.03963867 2.55105469 0.07927734 3.86523438 0.12011719 C4.54573853 0.14039978 5.22624268 0.16068237 5.92736816 0.18157959 C7.36662394 0.22716744 8.80572329 0.27794361 10.24462891 0.33349609 C12.4499858 0.41665288 14.65522237 0.47851468 16.86132812 0.53808594 C18.25850705 0.58498431 19.65564511 0.63311989 21.05273438 0.68261719 C22.96602539 0.74884277 22.96602539 0.74884277 24.91796875 0.81640625 C27.95898438 1.16699219 27.95898438 1.16699219 29.95898438 3.16699219 C29.78710938 5.51464844 29.78710938 5.51464844 29.20898438 8.22949219 C29.02851562 9.12796875 28.84804688 10.02644531 28.66210938 10.95214844 C28.43007813 11.68304688 28.19804688 12.41394531 27.95898438 13.16699219 C27.29898438 13.49699219 26.63898437 13.82699219 25.95898438 14.16699219 C26.61898437 10.53699219 27.27898438 6.90699219 27.95898438 3.16699219 C12.61398438 3.66199219 12.61398438 3.66199219 -3.04101562 4.16699219 C-4.03101562 8.12699219 -5.02101563 12.08699219 -6.04101562 16.16699219 C-6.66631443 18.42388537 -7.30622157 20.6768661 -7.97045898 22.92260742 C-8.31769516 24.10100693 -8.66493134 25.27940643 -9.02268982 26.49351501 C-9.38838577 27.72509842 -9.75408173 28.95668182 -10.13085938 30.22558594 C-10.52075142 31.54486851 -10.91044128 32.86421085 -11.29994202 34.18360901 C-12.11112456 36.92957919 -12.92390716 39.67506826 -13.73803711 42.42016602 C-14.76997613 45.89972175 -15.79912034 49.38009562 -16.82720089 52.86079311 C-17.82327759 56.23267958 -18.82076951 59.6041469 -19.81835938 62.97558594 C-20.1820311 64.20514511 -20.54570282 65.43470428 -20.9203949 66.70152283 C-23.24455071 74.53885612 -25.62156892 82.35855378 -28.04101562 90.16699219 C-28.37101562 90.16699219 -28.70101563 90.16699219 -29.04101562 90.16699219 C-29.04101562 82.24699219 -29.04101562 74.32699219 -29.04101562 66.16699219 C-28.05101563 65.67199219 -28.05101563 65.67199219 -27.04101562 65.16699219 C-26.05101562 65.49699219 -25.06101562 65.82699219 -24.04101562 66.16699219 C-23.38101562 62.20699219 -22.72101562 58.24699219 -22.04101562 54.16699219 C-21.38101562 54.16699219 -20.72101562 54.16699219 -20.04101562 54.16699219 C-19.91726562 53.44511719 -19.79351562 52.72324219 -19.66601562 51.97949219 C-19.04101562 49.16699219 -19.04101562 49.16699219 -18.04101562 46.72949219 C-16.93194281 43.88749309 -16.46158326 41.18106027 -16.04101562 38.16699219 C-16.70101563 37.83699219 -17.36101563 37.50699219 -18.04101562 37.16699219 C-17.71101563 35.84699219 -17.38101562 34.52699219 -17.04101562 33.16699219 C-16.05101562 33.16699219 -15.06101562 33.16699219 -14.04101562 33.16699219 C-13.99203125 32.5753125 -13.94304688 31.98363281 -13.89257812 31.37402344 C-13.4689893 26.89712771 -12.75249554 23.33872447 -11.04101562 19.16699219 C-10.11972792 14.63500117 -9.77161217 10.68042669 -11.04101562 6.16699219 C-9.72101562 6.49699219 -8.40101562 6.82699219 -7.04101562 7.16699219 C-6.75226562 6.38324219 -6.46351562 5.59949219 -6.16601562 4.79199219 C-4.6143721 1.17149063 -4.0166347 0.22056665 0 0 Z " fill="#0D0CB6" transform="translate(29.041015625,78.8330078125)"/>
<path d="M0 0 C0.433125 0.928125 0.86625 1.85625 1.3125 2.8125 C2.70957508 5.92348856 2.70957508 5.92348856 4.62109375 7.38671875 C6 9 6 9 6.109375 11.375 C5.93148437 12.674375 5.93148437 12.674375 5.75 14 C5.64171875 14.86625 5.5334375 15.7325 5.421875 16.625 C5 19 5 19 4 22 C3.34 22 2.68 22 2 22 C1.95101562 22.58007812 1.90203125 23.16015625 1.8515625 23.7578125 C1.77679688 24.53898437 1.70203125 25.32015625 1.625 26.125 C1.55539063 26.89070313 1.48578125 27.65640625 1.4140625 28.4453125 C0.92673965 31.45200253 -0.00203609 34.12085672 -1 37 C-3.88233884 46.23034701 -6.48594328 55.18759473 -6.859375 64.91015625 C-7 67 -7 67 -8 68 C-8.36760731 70.32817964 -8.70241581 72.6618385 -9 75 C-9.66 75 -10.32 75 -11 75 C-11.66 78.3 -12.32 81.6 -13 85 C-13.66 85 -14.32 85 -15 85 C-15.66 86.98 -16.32 88.96 -17 91 C-18.14512156 87.61049752 -17.84025674 85.54005084 -16.83178711 82.13745117 C-16.55076645 81.1709111 -16.26974579 80.20437103 -15.98020935 79.20854187 C-15.6657637 78.16390274 -15.35131805 77.11926361 -15.02734375 76.04296875 C-14.70721817 74.9489827 -14.38709259 73.85499664 -14.05726624 72.7278595 C-13.02669069 69.21157732 -11.98281105 65.69942699 -10.9375 62.1875 C-8.26158718 53.13366443 -5.60642847 44.07410332 -3 35 C-2.68121887 33.89271545 -2.36243774 32.78543091 -2.03399658 31.64459229 C-1.13018567 28.47236098 -0.25041481 25.29451925 0.62109375 22.11328125 C0.89341324 21.16317673 1.16573273 20.2130722 1.44630432 19.23417664 C2.8082436 14.15985259 2.8082436 14.15985259 2.39868164 8.99291992 C0.73678845 6.62496144 -0.32242546 6.05295887 -3 5 C-5.66650958 4.71178025 -5.66650958 4.71178025 -8.59472656 4.77294922 C-9.71558655 4.77310028 -10.83644653 4.77325134 -11.99127197 4.77340698 C-13.19555847 4.78372955 -14.39984497 4.79405212 -15.640625 4.8046875 C-16.87794373 4.8075174 -18.11526245 4.81034729 -19.39007568 4.81326294 C-22.67151541 4.822558 -25.95275754 4.84051295 -29.23413086 4.8626709 C-32.58575622 4.88316952 -35.93739007 4.89210276 -39.2890625 4.90234375 C-45.85945223 4.9243997 -52.42970996 4.95787418 -59 5 C-59 4.01 -59 3.02 -59 2 C-55.98828569 0.99609523 -53.88603029 0.84643507 -50.73413086 0.79467773 C-49.65969223 0.77473251 -48.5852536 0.75478729 -47.47825623 0.73423767 C-45.73911705 0.70916893 -45.73911705 0.70916893 -43.96484375 0.68359375 C-42.77524551 0.66281265 -41.58564728 0.64203156 -40.36000061 0.62062073 C-36.55255998 0.55516012 -32.7450491 0.49627699 -28.9375 0.4375 C-26.36652923 0.39430808 -23.79556553 0.35069357 -21.22460938 0.30664062 C-3.10888755 0 -3.10888755 0 0 0 Z " fill="#2525A7" transform="translate(139,37)"/>
<path d="M0 0 C0.33 0 0.66 0 1 0 C1 2.64 1 5.28 1 8 C2.30988892 8.03758423 2.30988892 8.03758423 3.64624023 8.07592773 C6.87602552 8.17087709 10.10564154 8.27012029 13.33520508 8.37231445 C14.73489199 8.41571434 16.13463359 8.45738564 17.53442383 8.49731445 C19.54261495 8.55489445 21.55061149 8.61914 23.55859375 8.68359375 C24.76829834 8.72025146 25.97800293 8.75690918 27.22436523 8.79467773 C30 9 30 9 31 10 C31.47104583 16.64022676 30.11561153 22.06985371 28.125 28.375 C27.85558594 29.27605469 27.58617188 30.17710937 27.30859375 31.10546875 C25.27370806 37.72629194 25.27370806 37.72629194 23 40 C23.37734702 30.92480412 25.48533829 22.66681081 28 14 C25.36 14 22.72 14 20 14 C20 13.34 20 12.68 20 12 C19.44014404 12.02094727 18.88028809 12.04189453 18.3034668 12.06347656 C15.76499414 12.14666202 13.226808 12.19866381 10.6875 12.25 C9.80642578 12.28351563 8.92535156 12.31703125 8.01757812 12.3515625 C1.55429594 12.44986337 1.55429594 12.44986337 -1.15625 10.25 C-2.60395975 6.38944066 -1.21898548 3.84942783 0 0 Z " fill="#0303D4" transform="translate(44,160)"/>
<path d="M0 0 C0.495 1.98 0.495 1.98 1 4 C-18.8 4.33 -38.6 4.66 -59 5 C-59 4.01 -59 3.02 -59 2 C-55.98828569 0.99609523 -53.88603029 0.84643507 -50.73413086 0.79467773 C-49.65969223 0.77473251 -48.5852536 0.75478729 -47.47825623 0.73423767 C-45.73911705 0.70916893 -45.73911705 0.70916893 -43.96484375 0.68359375 C-42.77524551 0.66281265 -41.58564728 0.64203156 -40.36000061 0.62062073 C-36.55255998 0.55516012 -32.7450491 0.49627699 -28.9375 0.4375 C-26.36652923 0.39430808 -23.79556553 0.35069357 -21.22460938 0.30664062 C-3.10888755 0 -3.10888755 0 0 0 Z " fill="#0706B8" transform="translate(139,37)"/>
<path d="M0 0 C1.42816509 4.48994186 0.04146911 7.91771416 -1.375 12.25 C-3.19024532 17.86529183 -4.42747867 23.11501332 -5 29 C-3.69796631 28.98428955 -3.69796631 28.98428955 -2.36962891 28.96826172 C0.84699528 28.93420284 4.06352767 28.90911233 7.28027344 28.89013672 C8.67320781 28.88007123 10.06612102 28.86641766 11.45898438 28.84912109 C13.4595436 28.8248978 15.46025615 28.81459186 17.4609375 28.8046875 C19.26763916 28.78897705 19.26763916 28.78897705 21.11083984 28.77294922 C24 29 24 29 26 31 C25.61589695 36.98103328 23.79451437 42.60142144 22.0625 48.3125 C21.79759766 49.21806641 21.53269531 50.12363281 21.25976562 51.05664062 C21.00001953 51.92095703 20.74027344 52.78527344 20.47265625 53.67578125 C20.23812744 54.45864502 20.00359863 55.24150879 19.76196289 56.0480957 C19 58 19 58 17 60 C18.76923661 50.18877881 21.41227214 40.62002647 24 31 C23.10168457 31.00523682 22.20336914 31.01047363 21.27783203 31.01586914 C17.94937501 31.03289725 14.62096419 31.04544337 11.29248047 31.05493164 C9.8510668 31.05996474 8.40965824 31.06679173 6.96826172 31.07543945 C4.89809915 31.08754983 2.82800399 31.09323847 0.7578125 31.09765625 C-0.4885498 31.10289307 -1.73491211 31.10812988 -3.01904297 31.11352539 C-6 31 -6 31 -8 30 C-6.72977021 22.96735667 -4.98783682 16.19875528 -2.875 9.375 C-2.59785156 8.46621094 -2.32070312 7.55742187 -2.03515625 6.62109375 C-1.36102123 4.41272041 -0.68260023 2.20576837 0 0 Z " fill="#1A1AA2" transform="translate(83,140)"/>
<path d="M0 0 C-0.45098238 1.93922422 -0.91105559 3.87633594 -1.375 5.8125 C-1.63023438 6.89144531 -1.88546875 7.97039063 -2.1484375 9.08203125 C-3 12 -3 12 -5 15 C-5.61394221 17.73457747 -6.15285223 20.42928983 -6.625 23.1875 C-6.7590625 23.93708984 -6.893125 24.68667969 -7.03125 25.45898438 C-7.36045419 27.30487928 -7.68106498 29.15230309 -8 31 C-3.80078534 31.02476851 0.39839029 31.04289246 4.59765625 31.05493164 C6.02539816 31.05995206 7.45313496 31.06676972 8.88085938 31.07543945 C10.93621079 31.08760553 12.99149407 31.09325128 15.046875 31.09765625 C16.28276367 31.10289307 17.51865234 31.10812988 18.79199219 31.11352539 C21.4145671 31.02071737 23.51644594 30.78356673 26 30 C26 30.66 26 31.32 26 32 C25.01 32 24.02 32 23 32 C23 32.66 23 33.32 23 34 C18.6217488 34.02469081 14.24353433 34.04285557 9.86523438 34.05493164 C8.37531834 34.05996514 6.88540726 34.06679242 5.39550781 34.07543945 C3.25584696 34.08754805 1.11625132 34.09323807 -1.0234375 34.09765625 C-2.31169434 34.10289307 -3.59995117 34.10812988 -4.92724609 34.11352539 C-8 34 -8 34 -10 33 C-10.20057699 28.28644074 -9.75497555 24.25136157 -8.6328125 19.67578125 C-8.1420456 17.60062492 -7.71102566 15.5112951 -7.3046875 13.41796875 C-7.05976563 12.16628906 -6.81484375 10.91460937 -6.5625 9.625 C-6.33691406 8.44164062 -6.11132812 7.25828125 -5.87890625 6.0390625 C-4.87280511 2.56018833 -3.92461625 0 0 0 Z " fill="#0403CB" transform="translate(37,41)"/>
<path d="M0 0 C0.33 0 0.66 0 1 0 C1.08150744 2.06183633 1.1394194 4.12461349 1.1875 6.1875 C1.22230469 7.33605469 1.25710937 8.48460937 1.29296875 9.66796875 C0.96747108 13.36996226 -0.04468234 14.90608214 -2 18 C-2.62542403 20.33331272 -3.16344509 22.69132507 -3.625 25.0625 C-3.98464844 26.87427734 -3.98464844 26.87427734 -4.3515625 28.72265625 C-4.56554688 29.80417969 -4.77953125 30.88570312 -5 32 C-6.41676026 38.15788711 -8.55865909 44.17834091 -11 50 C-11.99 49.67 -12.98 49.34 -14 49 C-9.45452936 32.63045944 -4.79537432 16.298105 0 0 Z " fill="#0C0ABA" transform="translate(38,150)"/>
<path d="M0 0 C0.625 1.8125 0.625 1.8125 1 4 C0.01 5.485 0.01 5.485 -1 7 C-1.31331899 9.15841971 -1.55168628 11.32799261 -1.75 13.5 C-2.78430181 23.06189225 -5.89868114 31.93985778 -9 41 C-9.33 41 -9.66 41 -10 41 C-10 33.08 -10 25.16 -10 17 C-9.34 16.67 -8.68 16.34 -8 16 C-7.01 16.33 -6.02 16.66 -5 17 C-4.34 13.04 -3.68 9.08 -3 5 C-2.34 5 -1.68 5 -1 5 C-0.67 3.35 -0.34 1.7 0 0 Z " fill="#0202DA" transform="translate(10,128)"/>
<path d="M0 0 C1.40542458 4.44050452 0.04587352 7.72606524 -1.375 12 C-3.31181571 18.13956213 -4.45862945 23.73501402 -4.75390625 30.1953125 C-5.17193718 34.95953802 -6.57610478 39.45069956 -8 44 C-8.66 44 -9.32 44 -10 44 C-10.19335938 44.69867188 -10.38671875 45.39734375 -10.5859375 46.1171875 C-10.84632812 47.02726562 -11.10671875 47.93734375 -11.375 48.875 C-11.63023438 49.77992188 -11.88546875 50.68484375 -12.1484375 51.6171875 C-13 54 -13 54 -15 56 C-14.31107029 49.65172675 -12.61931179 43.71902512 -10.83984375 37.59765625 C-10.53051407 36.51995468 -10.22118439 35.44225311 -9.90248108 34.33189392 C-8.91850622 30.90749248 -7.92810053 27.48498997 -6.9375 24.0625 C-6.26715214 21.73384654 -5.59722559 19.40507176 -4.92773438 17.07617188 C-3.29003313 11.38270037 -1.64705528 5.69077209 0 0 Z " fill="#1515B1" transform="translate(54,94)"/>
<path d="M0 0 C0 0.99 0 1.98 0 3 C-4.04065523 3.3663946 -8.08259875 3.71594458 -12.125 4.0625 C-13.83816406 4.2181543 -13.83816406 4.2181543 -15.5859375 4.37695312 C-17.24882813 4.51713867 -17.24882813 4.51713867 -18.9453125 4.66015625 C-19.96125488 4.74918213 -20.97719727 4.83820801 -22.02392578 4.92993164 C-25.14733618 5.00346887 -27.94164788 4.60808174 -31 4 C-30.79375 4.928125 -30.5875 5.85625 -30.375 6.8125 C-30 10 -30 10 -32 13 C-33.01559401 14.99212671 -34.01789629 16.9911515 -35 19 C-35.66 19 -36.32 19 -37 19 C-37.33 19.99 -37.66 20.98 -38 22 C-36.25 6.25 -36.25 6.25 -32 2 C-29.0859375 1.83984375 -29.0859375 1.83984375 -25.375 1.9375 C-19.60388137 2.03333038 -13.88648606 1.91891429 -8.125 1.5625 C-7.42938965 1.52310303 -6.7337793 1.48370605 -6.01708984 1.44311523 C-2.72211888 1.48364117 -2.72211888 1.48364117 0 0 Z " fill="#0504D3" transform="translate(118,136)"/>
<path d="M0 0 C1.11667279 3.35001838 0.76286236 5.59254812 0 9 C0.86278564 9.01981934 1.72557129 9.03963867 2.61450195 9.06005859 C5.81836956 9.13819644 9.02185894 9.22489082 12.2253418 9.31738281 C13.61131907 9.3556435 14.99739465 9.39050156 16.38354492 9.421875 C18.3770164 9.46758699 20.37016914 9.52658925 22.36328125 9.5859375 C23.56251221 9.6173584 24.76174316 9.6487793 25.99731445 9.68115234 C29 10 29 10 32 12 C32.85316864 16.99713059 31.04161754 20.39025423 28.9453125 24.7734375 C27.66634924 27.78587161 27.41167499 30.76541082 27 34 C26.11404419 36.7252771 25.07344032 39.33973486 24 42 C23.34 42 22.68 42 22 42 C22.59954926 39.51963124 23.20348528 37.04055043 23.8125 34.5625 C23.99192139 33.8305542 24.17134277 33.0986084 24.35620117 32.34448242 C25.33563669 28.42021948 26.4161777 24.61359959 27.8125 20.8125 C29.38324797 16.84121396 29.38324797 16.84121396 28 12 C18.43 11.67 8.86 11.34 -1 11 C-1 3 -1 3 0 0 Z " fill="#0303CE" transform="translate(79,158)"/>
<path d="M0 0 C0.33 0 0.66 0 1 0 C1 2.64 1 5.28 1 8 C2.30988892 8.03758423 2.30988892 8.03758423 3.64624023 8.07592773 C6.87602552 8.17087709 10.10564154 8.27012029 13.33520508 8.37231445 C14.73489199 8.41571434 16.13463359 8.45738564 17.53442383 8.49731445 C19.54261495 8.55489445 21.55061149 8.61914 23.55859375 8.68359375 C24.76829834 8.72025146 25.97800293 8.75690918 27.22436523 8.79467773 C30 9 30 9 31 10 C31.27314815 15.73611111 31.27314815 15.73611111 31 18 C30.34 18.66 29.68 19.32 29 20 C29 17.03 29 14.06 29 11 C28.16750732 11.05124023 27.33501465 11.10248047 26.47729492 11.15527344 C23.38613195 11.33569739 20.29471034 11.49758372 17.2019043 11.64697266 C15.20608591 11.74904942 13.21139678 11.87247369 11.21679688 11.99609375 C9.33637695 12.08310547 9.33637695 12.08310547 7.41796875 12.171875 C6.26063232 12.2347168 5.1032959 12.29755859 3.91088867 12.36230469 C1 12 1 12 -0.91015625 10.12304688 C-2.8031204 6.43549843 -1.2084441 3.81613925 0 0 Z " fill="#1E1DA7" transform="translate(44,160)"/>
<path d="M0 0 C0.33 0 0.66 0 1 0 C1.02689216 1.47906892 1.04634621 2.95827483 1.0625 4.4375 C1.07410156 5.26121094 1.08570313 6.08492188 1.09765625 6.93359375 C1 9 1 9 0 10 C-0.36760731 12.32817964 -0.70241581 14.6618385 -1 17 C-1.66 17 -2.32 17 -3 17 C-3.66 20.3 -4.32 23.6 -5 27 C-5.66 27 -6.32 27 -7 27 C-7.66 28.98 -8.32 30.96 -9 33 C-10.00693162 29.87820592 -9.97289724 28.01030331 -9.00390625 24.890625 C-8.77509766 24.13652344 -8.54628906 23.38242188 -8.31054688 22.60546875 C-8.06369141 21.82816406 -7.81683594 21.05085938 -7.5625 20.25 C-7.31951172 19.45722656 -7.07652344 18.66445312 -6.82617188 17.84765625 C-6.22645805 15.89564654 -5.61441879 13.94743117 -5 12 C-4.34 12 -3.68 12 -3 12 C-2.01 8.04 -1.02 4.08 0 0 Z " fill="#0403CC" transform="translate(131,95)"/>
<path d="M0 0 C1.14391026 3.43173077 0.83118597 4.3656473 -0.17163086 7.74682617 C-0.45199692 8.70759567 -0.73236298 9.66836517 -1.02122498 10.6582489 C-1.48831627 12.20993523 -1.48831627 12.20993523 -1.96484375 13.79296875 C-2.27700333 14.85413406 -2.5891629 15.91529938 -2.91078186 17.00862122 C-3.91162034 20.40402593 -4.92440625 23.79573405 -5.9375 27.1875 C-6.61732513 29.48609502 -7.2963716 31.78492048 -7.97460938 34.08398438 C-9.64070696 39.72536332 -11.31663252 45.3637518 -13 51 C-13.33 51 -13.66 51 -14 51 C-13.88570603 49.22844346 -13.75816963 47.45773771 -13.625 45.6875 C-13.55539063 44.70136719 -13.48578125 43.71523437 -13.4140625 42.69921875 C-13 40 -13 40 -11 37 C-10.2761407 34.64180214 -9.61756471 32.26323853 -9 29.875 C-8.82412354 29.20138428 -8.64824707 28.52776855 -8.46704102 27.83374023 C-7.54262978 24.25846277 -6.6908598 20.67736088 -5.9375 17.0625 C-5.04364515 12.86217324 -3.61455983 8.97164451 -2 5 C-1.608125 4.01 -1.21625 3.02 -0.8125 2 C-0.544375 1.34 -0.27625 0.68 0 0 Z " fill="#1B199D" transform="translate(21,95)"/>
<path d="M0 0 C2.97 0.495 2.97 0.495 6 1 C5.34 1.66 4.68 2.32 4 3 C3.32348793 5.19704511 3.32348793 5.19704511 2.875 7.625 C2.70742187 8.44226562 2.53984375 9.25953125 2.3671875 10.1015625 C2.24601562 10.72804688 2.12484375 11.35453125 2 12 C1.34 12 0.68 12 0 12 C-0.66 13.65 -1.32 15.3 -2 17 C-2.66 17 -3.32 17 -4 17 C-4.09688221 11.55306686 -4.12862175 6.36095333 -3 1 C-2.67 1 -2.34 1 -2 1 C-2 2.65 -2 4.3 -2 6 C-1.01 6 -0.02 6 1 6 C0.67 4.02 0.34 2.04 0 0 Z " fill="#0202E6" transform="translate(74,40)"/>
<path d="M0 0 C0.33 0 0.66 0 1 0 C1 2.97 1 5.94 1 9 C0.34 9 -0.32 9 -1 9 C-1 10.65 -1 12.3 -1 14 C0.32 13.67 1.64 13.34 3 13 C2.88490339 14.41750563 2.75746342 15.83401169 2.625 17.25 C2.55539063 18.03890625 2.48578125 18.8278125 2.4140625 19.640625 C1.98492887 22.085877 1.21399362 23.84836903 0 26 C-0.33 26 -0.66 26 -1 26 C-4.18333664 16.84790717 -3.62880543 8.94241339 0 0 Z " fill="#0202D7" transform="translate(42,141)"/>
<path d="M0 0 C1.08062462 3.24187386 0.96405231 3.89709861 0.00390625 7.01171875 C-0.20161865 7.69451904 -0.40714355 8.37731934 -0.61889648 9.08081055 C-0.88903564 9.94101807 -1.1591748 10.80122559 -1.4375 11.6875 C-2.283125 14.430625 -3.12875 17.17375 -4 20 C6.23 20 16.46 20 27 20 C27.33 18.35 27.66 16.7 28 15 C28.33 15 28.66 15 29 15 C29 16.65 29 18.3 29 20 C25.48037795 22.17192207 22.64592675 22.2452229 18.5546875 22.23046875 C17.31332031 22.22853516 16.07195313 22.22660156 14.79296875 22.22460938 C12.85357422 22.20624023 12.85357422 22.20624023 10.875 22.1875 C9.57433594 22.18685547 8.27367187 22.18621094 6.93359375 22.18554688 C-2.71930804 22.14034598 -2.71930804 22.14034598 -5 21 C-4.43510662 13.61178926 -3.68910047 6.58767942 0 0 Z " fill="#1A199A" transform="translate(34,51)"/>
<path d="M0 0 C0.33 0 0.66 0 1 0 C1.28936772 7.70039658 1.39592601 15.40611099 -3 22 C-3.79407707 24.49032546 -4.45407877 27.00030987 -5.12109375 29.52734375 C-6.04717055 32.13270649 -7.23933536 33.88622156 -9 36 C-7.87538058 29.84418843 -6.50026691 23.76093671 -5 17.6875 C-4.7510498 16.6655957 -4.7510498 16.6655957 -4.49707031 15.62304688 C-3.57713544 11.94692208 -2.45527229 8.49514114 -1 5 C-0.63128912 3.34080104 -0.28718326 1.6752357 0 0 Z " fill="#0303D3" transform="translate(141,59)"/>
<path d="M0 0 C0.6875 1.6875 0.6875 1.6875 1 4 C-0.14786941 6.24356294 -1.2095767 8.2095767 -3 10 C-6.79945813 10.38320261 -10.62264783 10.47012839 -14.4375 10.625 C-15.51322266 10.6765625 -16.58894531 10.728125 -17.69726562 10.78125 C-19.23737305 10.84699219 -19.23737305 10.84699219 -20.80859375 10.9140625 C-21.75532959 10.9548291 -22.70206543 10.9955957 -23.67749023 11.03759766 C-26 11 -26 11 -28 10 C-28 9.34 -28 8.68 -28 8 C-27.03175293 8.01571045 -27.03175293 8.01571045 -26.04394531 8.03173828 C-23.11266998 8.07337272 -20.18145696 8.09934975 -17.25 8.125 C-16.23421875 8.14175781 -15.2184375 8.15851563 -14.171875 8.17578125 C-13.1921875 8.18222656 -12.2125 8.18867188 -11.203125 8.1953125 C-9.85202637 8.21102295 -9.85202637 8.21102295 -8.47363281 8.22705078 C-5.79664407 7.98133429 -4.22389636 7.50097517 -2 6 C-0.70768358 2.95800528 -0.70768358 2.95800528 0 0 Z " fill="#1A19B3" transform="translate(120,128)"/>
<path d="M0 0 C2 2 2 2 2.1953125 4.6015625 C2.17210938 5.59929687 2.14890625 6.59703125 2.125 7.625 C2.10695313 8.62789062 2.08890625 9.63078125 2.0703125 10.6640625 C2.03550781 11.82035156 2.03550781 11.82035156 2 13 C-0.31 13.66 -2.62 14.32 -5 15 C-4.35814255 12.68632778 -3.71172608 10.3741043 -3.0625 8.0625 C-2.78889648 7.0734668 -2.78889648 7.0734668 -2.50976562 6.06445312 C-1.11328125 1.11328125 -1.11328125 1.11328125 0 0 Z " fill="#0504D2" transform="translate(124,121)"/>
<path d="M0 0 C1.61582377 4.03955942 0.25282725 6.97776515 -1 11 C-1.30087765 12.45646085 -1.59215907 13.91492926 -1.875 15.375 C-2.91243022 20.23586256 -4.8312218 24.54663505 -7 29 C-8.40167432 24.79497703 -6.87530789 21.68339304 -5.5625 17.625 C-3.34014144 10.96407849 -3.34014144 10.96407849 -3 4 C-2.34 3.67 -1.68 3.34 -1 3 C-0.67 2.01 -0.34 1.02 0 0 Z " fill="#0404C8" transform="translate(57,89)"/>
<path d="M0 0 C1.22070137 3.66210411 0.30348058 5.07292805 -1.09765625 8.52734375 C-2.81372513 13.22981822 -3.85613018 18.13246885 -5 23 C-5.33 22.01 -5.66 21.02 -6 20 C-6.66 19.67 -7.32 19.34 -8 19 C-7.67 17.68 -7.34 16.36 -7 15 C-6.01 15 -5.02 15 -4 15 C-3.95101563 14.40832031 -3.90203125 13.81664063 -3.8515625 13.20703125 C-2.87387387 2.87387387 -2.87387387 2.87387387 0 0 Z " fill="#0302CF" transform="translate(19,97)"/>
<path d="M0 0 C1.88041992 0.01933594 1.88041992 0.01933594 3.79882812 0.0390625 C5.10916016 0.07257812 6.41949219 0.10609375 7.76953125 0.140625 C9.10479135 0.16069193 10.44008008 0.17894238 11.77539062 0.1953125 C15.04499271 0.24252697 18.31315317 0.30837316 21.58203125 0.390625 C21.58203125 0.720625 21.58203125 1.050625 21.58203125 1.390625 C20.4696106 1.420354 20.4696106 1.420354 19.3347168 1.45068359 C15.97929291 1.54585428 12.62449839 1.65556594 9.26953125 1.765625 C7.51866211 1.81203125 7.51866211 1.81203125 5.73242188 1.859375 C4.0550293 1.91738281 4.0550293 1.91738281 2.34375 1.9765625 C0.79627075 2.02369385 0.79627075 2.02369385 -0.7824707 2.07177734 C-3.64640111 2.21737129 -3.64640111 2.21737129 -6.41796875 4.390625 C-7.63678085 7.94734679 -7.63678085 7.94734679 -8.41796875 11.390625 C-8.74796875 11.390625 -9.07796875 11.390625 -9.41796875 11.390625 C-9.78022719 5.11147868 -9.78022719 5.11147868 -8.30737305 2.18066406 C-5.58539347 -0.3981645 -3.69945894 -0.06695853 0 0 Z " fill="#201E9C" transform="translate(44.41796875,39.609375)"/>
<path d="M0 0 C0.33 0 0.66 0 1 0 C1.22514824 5.4035577 0.69166838 9.83595969 -1 15 C-1.99 15.33 -2.98 15.66 -4 16 C-3.39578636 4.10324186 -3.39578636 4.10324186 0 0 Z " fill="#110EB7" transform="translate(90,115)"/>
<path d="M0 0 C0.66 0 1.32 0 2 0 C2.33 0.66 2.66 1.32 3 2 C12.57 2.33 22.14 2.66 32 3 C32 3.33 32 3.66 32 4 C21.44 4 10.88 4 0 4 C-0.33 4.66 -0.66 5.32 -1 6 C-1.625 4.125 -1.625 4.125 -2 2 C-1.34 1.34 -0.68 0.68 0 0 Z " fill="#0201DF" transform="translate(38,35)"/>
<path d="M0 0 C1.13087014 3.39261042 0.86514295 4.16517757 -0.21484375 7.44921875 C-0.62573242 8.72055664 -0.62573242 8.72055664 -1.04492188 10.01757812 C-1.48674805 11.33918945 -1.48674805 11.33918945 -1.9375 12.6875 C-2.22818359 13.58017578 -2.51886719 14.47285156 -2.81835938 15.39257812 C-3.53769987 17.59776948 -4.26516672 19.79993258 -5 22 C-5.33 22 -5.66 22 -6 22 C-5.50803042 16.99830923 -4.91095575 12.02712051 -4.125 7.0625 C-3.98320313 6.14597656 -3.84140625 5.22945312 -3.6953125 4.28515625 C-3 2 -3 2 0 0 Z " fill="#0C0C9C" transform="translate(6,147)"/>
<path d="M0 0 C1.99954746 -0.04254356 4.00041636 -0.04080783 6 0 C7 1 7 1 7.0625 3.5625 C7.041875 4.366875 7.02125 5.17125 7 6 C5.35 6.33 3.7 6.66 2 7 C0 2.25 0 2.25 0 0 Z " fill="#0605E3" transform="translate(193,0)"/>
<path d="M0 0 C0.66 0 1.32 0 2 0 C3.56393356 3.97376829 2.36145292 6.81377903 1.0625 10.75 C0.68222656 11.92046875 0.30195312 13.0909375 -0.08984375 14.296875 C-0.39019531 15.18890625 -0.69054688 16.0809375 -1 17 C-1.33 17 -1.66 17 -2 17 C-2.3690205 5.47835991 -2.3690205 5.47835991 0 0 Z " fill="#0E0CB2" transform="translate(47,143)"/>
<path d="M0 0 C2 2 2 2 2.1171875 4.71484375 C2.03726563 5.77832031 1.95734375 6.84179688 1.875 7.9375 C1.81054688 8.99839844 1.74609375 10.05929688 1.6796875 11.15234375 C1 14 1 14 -1.0546875 15.87890625 C-1.69664063 16.24886719 -2.33859375 16.61882812 -3 17 C-3.40214229 10.83381819 -1.96818336 5.82254243 0 0 Z " fill="#1915B9" transform="translate(66,52)"/>
<path d="M0 0 C2.91175861 0.32352873 4.85769937 0.91387067 7.375 2.4375 C9.63399448 5.99976052 9.0581995 8.57679671 8.5546875 12.66015625 C8 15 8 15 6 18 C5.28296801 15.21154227 4.92423317 13.33674145 5.5625 10.5 C6.12219183 7.30176096 5.55973784 5.82238276 4 3 C1.98682781 1.19651922 1.98682781 1.19651922 0 0 Z " fill="#1D1EBC" transform="translate(136,41)"/>
<path d="M0 0 C0.33 0 0.66 0 1 0 C0.67 4.95 0.34 9.9 0 15 C-0.66 15 -1.32 15 -2 15 C-2.66 16.98 -3.32 18.96 -4 21 C-5.00693162 17.87820592 -4.97289724 16.01030331 -4.00390625 12.890625 C-3.77509766 12.13652344 -3.54628906 11.38242188 -3.31054688 10.60546875 C-3.06369141 9.82816406 -2.81683594 9.05085938 -2.5625 8.25 C-2.31951172 7.45722656 -2.07652344 6.66445312 -1.82617188 5.84765625 C-1.22645805 3.89564654 -0.61441879 1.94743117 0 0 Z " fill="#1D1DA6" transform="translate(126,107)"/>
<path d="M0 0 C1.32753379 3.98260138 0.30225432 5.9594331 -0.9375 9.9375 C-2.17118679 13.91457166 -3 16.81720851 -3 21 C-3.66 21 -4.32 21 -5 21 C-4.43510662 13.61178926 -3.68910047 6.58767942 0 0 Z " fill="#2525AF" transform="translate(34,51)"/>
<path d="M0 0 C-0.44962196 1.96035175 -0.90998248 3.91824309 -1.375 5.875 C-1.63023438 6.96554688 -1.88546875 8.05609375 -2.1484375 9.1796875 C-3 12 -3 12 -5 14 C-5.08082094 12.04233719 -5.13910778 10.08373272 -5.1875 8.125 C-5.22230469 7.03445312 -5.25710937 5.94390625 -5.29296875 4.8203125 C-5.19628906 3.88960937 -5.09960938 2.95890625 -5 2 C-2 0 -2 0 0 0 Z " fill="#0B09D3" transform="translate(37,41)"/>
<path d="M0 0 C1.32 1.32 2.64 2.64 4 4 C4 3.34 4 2.68 4 2 C4.66 2 5.32 2 6 2 C5.67 3.65 5.34 5.3 5 7 C3.02 7 1.04 7 -1 7 C-1.625 5.1875 -1.625 5.1875 -2 3 C-1.34 2.01 -0.68 1.02 0 0 Z " fill="#0705D7" transform="translate(194,193)"/>
<path d="M0 0 C1.35814777 4.0744433 -0.05254238 6.81468116 -1.4375 10.6875 C-1.68048828 11.38939453 -1.92347656 12.09128906 -2.17382812 12.81445312 C-2.7744944 14.54578532 -3.38619719 16.27328137 -4 18 C-4.33 18 -4.66 18 -5 18 C-5.37425983 12.88511563 -4.17541386 9.60183702 -2 5 C-1.32723284 3.3357865 -0.65793165 1.67013418 0 0 Z " fill="#211E9C" transform="translate(72,182)"/>
<path d="M0 0 C0.33 0.66 0.66 1.32 1 2 C-0.24716797 2.09087891 -0.24716797 2.09087891 -1.51953125 2.18359375 C-3.14955078 2.30927734 -3.14955078 2.30927734 -4.8125 2.4375 C-6.43091797 2.55931641 -6.43091797 2.55931641 -8.08203125 2.68359375 C-11.05989905 2.90212461 -11.05989905 2.90212461 -14 4 C-16.04296875 3.87890625 -16.04296875 3.87890625 -18.1875 3.5625 C-19.445625 3.376875 -20.70375 3.19125 -22 3 C-22 2.67 -22 2.34 -22 2 C-11.11 1.01 -11.11 1.01 0 0 Z " fill="#0201DE" transform="translate(118,138)"/>
<path d="M0 0 C2.97 0.495 2.97 0.495 6 1 C5.34 1.66 4.68 2.32 4 3 C3.32348793 5.19704511 3.32348793 5.19704511 2.875 7.625 C2.62363281 8.85089844 2.62363281 8.85089844 2.3671875 10.1015625 C2.24601562 10.72804688 2.12484375 11.35453125 2 12 C1.67 12 1.34 12 1 12 C0.67 8.04 0.34 4.08 0 0 Z " fill="#0403CD" transform="translate(74,40)"/>
<path d="M0 0 C2 2 2 2 2 5 C2.66 5 3.32 5 4 5 C3.67 6.32 3.34 7.64 3 9 C1.68 8.67 0.36 8.34 -1 8 C-0.67 5.36 -0.34 2.72 0 0 Z " fill="#0201DC" transform="translate(59,82)"/>
<path d="M0 0 C0.33 0 0.66 0 1 0 C1.0270043 1.45823212 1.04639787 2.91660675 1.0625 4.375 C1.07410156 5.18710938 1.08570313 5.99921875 1.09765625 6.8359375 C1 9 1 9 0 11 C-0.66 11 -1.32 11 -2 11 C-2.33 11.99 -2.66 12.98 -3 14 C-2.40380045 9.13103697 -1.43023178 4.67209049 0 0 Z " fill="#100FA6" transform="translate(34,164)"/>
<path d="M0 0 C0.66 0 1.32 0 2 0 C2.33 0.99 2.66 1.98 3 3 C2.34 3.66 1.68 4.32 1 5 C0.39688385 6.68761858 -0.13850237 8.40014476 -0.625 10.125 C-0.88539062 11.03507813 -1.14578125 11.94515625 -1.4140625 12.8828125 C-1.60742188 13.58148438 -1.80078125 14.28015625 -2 15 C-3.31534494 11.34142468 -2.65468309 8.91973519 -1.5625 5.25 C-1.27503906 4.26515625 -0.98757812 3.2803125 -0.69140625 2.265625 C-0.46324219 1.51796875 -0.23507813 0.7703125 0 0 Z " fill="#0604BB" transform="translate(71,178)"/>
<path d="M0 0 C0.66 0 1.32 0 2 0 C1.67 4.62 1.34 9.24 1 14 C0.34 14 -0.32 14 -1 14 C-1.33 13.01 -1.66 12.02 -2 11 C-1.67 10.67 -1.34 10.34 -1 10 C-0.76712992 8.31816052 -0.58735834 6.6287584 -0.4375 4.9375 C-0.35371094 4.01839844 -0.26992187 3.09929687 -0.18359375 2.15234375 C-0.12300781 1.44207031 -0.06242187 0.73179688 0 0 Z " fill="#0402DD" transform="translate(85,120)"/>
<path d="M0 0 C0.33 0 0.66 0 1 0 C1 3.3 1 6.6 1 10 C0.01 10.33 -0.98 10.66 -2 11 C-2 12.65 -2 14.3 -2 16 C-2.66 15.67 -3.32 15.34 -4 15 C-2.68 10.05 -1.36 5.1 0 0 Z " fill="#0D0CCF" transform="translate(141,59)"/>
<path d="M0 0 C0.33 0 0.66 0 1 0 C1 3.3 1 6.6 1 10 C0.01 10.33 -0.98 10.66 -2 11 C-2.19622241 6.78121808 -1.80230168 3.82989106 0 0 Z " fill="#0603D1" transform="translate(69,47)"/>
<path d="M0 0 C2 1 4 2 6 3 C5.67 4.32 5.34 5.64 5 7 C4.01 6.34 3.02 5.68 2 5 C2.33 4.34 2.66 3.68 3 3 C1.68 3.33 0.36 3.66 -1 4 C-0.67 2.68 -0.34 1.36 0 0 Z " fill="#070ACE" transform="translate(1,0)"/>
<path d="M0 0 C0.66 0 1.32 0 2 0 C2 1.98 2 3.96 2 6 C2.66 6.33 3.32 6.66 4 7 C2.35 7 0.7 7 -1 7 C-0.67 4.69 -0.34 2.38 0 0 Z " fill="#0E0AA2" transform="translate(76,163)"/>
</svg>
