<svg width="128" height="26" viewBox="0 0 128 26" fill="none" xmlns="http://www.w3.org/2000/svg">
<g clip-path="url(#clip0_1145_1023)">
<path d="M31.0498 23.9305V2.01562H40.5826C42.9326 2.01562 45.1836 2.46169 46.8558 3.35273C48.5378 4.24378 49.9684 5.51561 50.8301 7.16714C51.7016 8.81867 52.1378 10.764 52.1378 13.003C52.1378 15.242 51.7026 17.1666 50.8301 18.8084C49.9695 20.4501 48.6977 21.7154 47.0157 22.6075C45.3435 23.4888 42.9336 23.9294 40.5826 23.9294H31.0498V23.9305ZM40.6826 20.2499C42.1405 20.2499 43.5962 19.9638 44.6254 19.3915C45.6634 18.8095 46.6012 17.9728 47.156 16.8816C47.7109 15.7893 47.9883 14.4968 47.9883 13.0019C47.9883 11.507 47.7109 10.1873 47.156 9.0961C46.6012 8.00487 45.6644 7.17149 44.6254 6.59922C43.5875 6.01716 42.1275 5.72667 40.6696 5.72667H35.1221V20.2499H40.6837H40.6826Z" fill="#4B76FA"/>
<path fill-rule="evenodd" clip-rule="evenodd" d="M65.7746 24.3778C72.0554 24.3778 77.1471 19.2861 77.1471 13.0053C77.1471 6.72449 72.0554 1.63281 65.7746 1.63281C59.4938 1.63281 54.4021 6.72449 54.4021 13.0053C54.4021 19.2861 59.4938 24.3778 65.7746 24.3778ZM65.7746 20.2827C69.6521 20.2827 72.7952 17.0243 72.7952 13.0053C72.7952 8.98637 69.6521 5.729 65.7746 5.729C61.8971 5.729 58.754 8.98746 58.754 13.0053C58.754 17.0232 61.8971 20.2827 65.7746 20.2827Z" fill="#4B76FA"/>
<path d="M83.8437 2.01562H79.7715V23.9305H83.8437V2.01562Z" fill="#4B76FA"/>
<path d="M92.813 23.9316L101.359 2.01562H97.2867L90.9178 18.5581L84.5488 2.01562H80.4766L89.0225 23.9316H92.813Z" fill="#4B76FA"/>
<path d="M102.061 2.01562H97.9883V23.9305H102.061V2.01562Z" fill="#4B76FA"/>
<path d="M108.695 23.9316H104.188L113.351 2.01562H117.641L108.695 23.9316Z" fill="#4B76FA"/>
<path d="M122.538 23.9316H127.046L117.881 2.01562H113.591L122.538 23.9316Z" fill="#4B76FA"/>
<path d="M122.599 16.5684H108.297V20.2653H122.599V16.5684Z" fill="#4B76FA"/>
</g>
<path d="M13.0031 15.9555C14.6354 15.9555 15.9584 14.6325 15.9584 13.0002C15.9584 11.3679 14.6354 10.0449 13.0031 10.0449C11.3708 10.0449 10.0479 11.3679 10.0479 13.0002C10.0479 14.6325 11.3708 15.9555 13.0031 15.9555Z" fill="#4B76FA"/>
<path d="M13.0026 8.83113L15.9467 5.88708V0.33585C14.9994 0.116374 14.0122 0 12.9986 0C11.9849 0 11.0039 0.115353 10.0586 0.333809V5.88708L13.0026 8.83113Z" fill="#4B76FA"/>
<path d="M13.0026 17.2363L10.0586 20.113H10.0596V25.6663C11.0029 25.8837 11.9849 25.9991 12.9945 25.9991H12.9996C14.0133 25.9991 15.0004 25.8827 15.9467 25.6632V20.113L13.0026 17.2363Z" fill="#4B76FA"/>
<path d="M25.6633 10.0586H20.1172L17.1445 13.0026L20.1172 15.9467H25.6643C25.8828 15.0014 25.9991 14.0163 25.9991 13.0047C25.9991 11.9931 25.8828 11.0059 25.6643 10.0596L25.6633 10.0586Z" fill="#4B76FA"/>
<path d="M8.76988 13.0026L5.88708 10.0586L0.328705 10.0596C0.13679 10.8885 0.0244997 11.747 0 12.628V13.3773C0.0244997 14.2583 0.13679 15.1178 0.328705 15.9467H5.88606L8.76886 13.0026H8.76988Z" fill="#4B76FA"/>
<path d="M20.1249 10.0334L24.0326 6.12571C22.9801 4.44136 21.5541 3.01527 19.8687 1.96484L15.96 5.87357C17.8383 6.6545 19.3419 8.15613 20.1249 10.0334Z" fill="#4B76FA"/>
<path d="M5.86771 15.962L1.95898 19.8707C2.45817 20.672 3.04208 21.4142 3.69846 22.0859L3.91284 22.3002C4.5825 22.9546 5.32157 23.5365 6.11985 24.0346L10.0265 20.1269C8.14925 19.3429 6.64762 17.8403 5.86669 15.9609L5.86771 15.962Z" fill="#4B76FA"/>
<path d="M20.1267 15.9648C19.3458 17.8432 17.8441 19.3468 15.9658 20.1298L19.8735 24.0375C20.6024 23.5822 21.2833 23.0565 21.906 22.4705L22.4644 21.9121C23.0524 21.2874 23.5791 20.6045 24.0344 19.8736L20.1257 15.9648H20.1267Z" fill="#4B76FA"/>
<path d="M10.0346 5.87357L6.12584 1.96484C4.44047 3.01629 3.01438 4.44136 1.96191 6.12571L5.86962 10.0334C6.65259 8.15613 8.15626 6.6545 10.0346 5.87357Z" fill="#4B76FA"/>
<defs>
<clipPath id="clip0_1145_1023">
<rect width="95.9944" height="22.745" fill="white" transform="translate(31.0498 1.63281)"/>
</clipPath>
</defs>
</svg>
