<?xml version="1.0" encoding="UTF-8"?>
<svg version="1.1" xmlns="http://www.w3.org/2000/svg" width="600" height="600">
<path d="M0 0 C198 0 396 0 600 0 C600 198 600 396 600 600 C402 600 204 600 0 600 C0 402 0 204 0 0 Z " fill="#FEFEFE" transform="translate(0,0)"/>
<path d="M0 0 C18.15 0 36.3 0 55 0 C55 55.11 55 110.22 55 167 C64.24 167 73.48 167 83 167 C83 148.52 83 130.04 83 111 C91.91 111 100.82 111 110 111 C110 83.61 110 56.22 110 28 C101.42 28 92.84 28 84 28 C84 18.76 84 9.52 84 0 C101.82 0 119.64 0 138 0 C138 18.48 138 36.96 138 56 C146.91 56 155.82 56 165 56 C165 37.52 165 19.04 165 0 C174.24 0 183.48 0 193 0 C193 18.48 193 36.96 193 56 C184.09 56 175.18 56 166 56 C166 74.15 166 92.3 166 111 C147.85 111 129.7 111 111 111 C111 129.15 111 147.3 111 166 C129.15 166 147.3 166 166 166 C166 184.48 166 202.96 166 222 C111.22 222 56.44 222 0 222 C0 148.74 0 75.48 0 0 Z " fill="#1A0C6D" transform="translate(30,189)"/>
<path d="M0 0 C17.82 0 35.64 0 54 0 C54 18.48 54 36.96 54 56 C62.91 56 71.82 56 81 56 C81 37.52 81 19.04 81 0 C90.24 0 99.48 0 109 0 C109 18.48 109 36.96 109 56 C100.09 56 91.18 56 82 56 C82 74.15 82 92.3 82 111 C63.85 111 45.7 111 27 111 C27 129.15 27 147.3 27 166 C45.15 166 63.3 166 82 166 C82 184.48 82 202.96 82 222 C81.67 222 81.34 222 81 222 C81 203.85 81 185.7 81 167 C62.85 167 44.7 167 26 167 C26 121.13 26 75.26 26 28 C17.42 28 8.84 28 0 28 C0 18.76 0 9.52 0 0 Z " fill="#221572" transform="translate(114,189)"/>
<path d="M0 0 C5.02486301 1.52144924 10.01833852 1.49013177 15.2421875 1.64453125 C16.84707031 1.70253906 16.84707031 1.70253906 18.484375 1.76171875 C21.11181158 1.85555577 23.73924921 1.94124682 26.3671875 2.01953125 C26.4921875 7.76953125 26.4921875 7.76953125 25.3671875 10.01953125 C22.64453125 10.43359375 22.64453125 10.43359375 19.3046875 10.64453125 C18.19996094 10.71929687 17.09523438 10.7940625 15.95703125 10.87109375 C15.10238281 10.92007813 14.24773437 10.9690625 13.3671875 11.01953125 C13.85316406 11.36886719 14.33914063 11.71820313 14.83984375 12.078125 C18.26522648 16.43212811 16.84731604 23.72744773 16.3671875 29.01953125 C14.48685752 36.78347441 10.87157456 42.63375153 4.234375 47.15234375 C0.099741 49.44101421 -3.54412312 49.61875662 -8.1953125 49.51953125 C-8.92427734 49.535 -9.65324219 49.55046875 -10.40429688 49.56640625 C-15.70034555 49.52827089 -18.49502619 48.31407201 -22.6328125 45.01953125 C-25.79397026 46.38936628 -26.6255217 47.00859505 -28.6328125 50.01953125 C-29.19266238 54.94078859 -29.19266238 54.94078859 -27.01708984 59.19482422 C-23.9341863 61.55419561 -21.96704678 61.61008655 -18.109375 61.77734375 C-16.8409375 61.84566406 -15.5725 61.91398437 -14.265625 61.984375 C-12.92973657 62.03897445 -11.59379755 62.0923494 -10.2578125 62.14453125 C-7.64549004 62.26490297 -5.03347807 62.39226083 -2.421875 62.52734375 C-1.26381348 62.5752002 -0.10575195 62.62305664 1.08740234 62.67236328 C6.52723942 63.24817453 10.52784159 64.70152927 14.6171875 68.33203125 C15.28234375 68.90566406 15.9475 69.47929687 16.6328125 70.0703125 C20.59176108 74.51967138 20.92442708 79.4342642 20.80859375 85.171875 C19.74111458 92.05853266 14.66281094 97.48921513 9.36328125 101.73828125 C1.66125158 106.68204981 -6.42734402 108.22228286 -15.3828125 108.33203125 C-16.54296875 108.37553711 -16.54296875 108.37553711 -17.7265625 108.41992188 C-24.99829885 108.49922772 -30.04624691 106.26871872 -35.5078125 101.51953125 C-39.1490966 97.23566761 -40.14340123 93.9488909 -40.015625 88.390625 C-38.9749137 81.94458663 -33.8010723 76.78325674 -29.6328125 72.01953125 C-30.3959375 71.48328125 -31.1590625 70.94703125 -31.9453125 70.39453125 C-35.66247854 67.10959382 -37.26637018 64.41239958 -38.0234375 59.46875 C-38.34320804 54.2143386 -38.00283313 50.82674039 -34.7578125 46.58203125 C-34.22414063 45.98519531 -33.69046875 45.38835937 -33.140625 44.7734375 C-31.57766062 42.9553779 -30.61805724 41.19567862 -29.6328125 39.01953125 C-30.35984375 38.29830078 -30.35984375 38.29830078 -31.1015625 37.5625 C-33.3244031 33.87099687 -33.16698084 30.56890516 -33.1328125 26.33203125 C-33.12709229 25.5234668 -33.12137207 24.71490234 -33.11547852 23.88183594 C-32.89220959 16.42751055 -31.13387681 11.68343576 -25.953125 6.26171875 C-18.65020338 -0.45696914 -9.74169169 -3.62784067 0 0 Z " fill="#221572" transform="translate(419.6328125,190.98046875)"/>
<path d="M0 0 C19.14 0 38.28 0 58 0 C59.14654482 2.29308963 59.19729117 3.79909656 59.31640625 6.3515625 C59.35830078 7.20234375 59.40019531 8.053125 59.44335938 8.9296875 C59.48267578 9.81914062 59.52199219 10.70859375 59.5625 11.625 C59.60568359 12.5221875 59.64886719 13.419375 59.69335938 14.34375 C59.79956861 16.56234283 59.90161194 18.7810488 60 21 C58.35 21 56.7 21 55 21 C54.731875 20.32453125 54.46375 19.6490625 54.1875 18.953125 C53.5996875 17.61507812 53.5996875 17.61507812 53 16.25 C52.62875 15.36828125 52.2575 14.4865625 51.875 13.578125 C49.20179556 9.9024689 46.31071805 8.34602735 42 7 C38.49663839 6.54493823 35.08855813 6.57159597 31.5625 6.6875 C30.65306641 6.69716797 29.74363281 6.70683594 28.80664062 6.71679688 C24.57245446 6.42375097 24.57245446 6.42375097 21 8 C20.83976438 10.88252645 20.74045971 13.74378527 20.68359375 16.62890625 C20.66281265 17.49313705 20.64203156 18.35736786 20.62062073 19.24778748 C20.55502886 22.01927445 20.49619582 24.79085921 20.4375 27.5625 C20.39432392 29.43685923 20.35070994 31.31120843 20.30664062 33.18554688 C20.19933773 37.79026336 20.09809785 42.39507858 20 47 C23.54284097 46.94785974 27.08329315 46.8527229 30.625 46.75 C31.62402344 46.73582031 32.62304688 46.72164062 33.65234375 46.70703125 C39.68029298 46.50743028 43.43953476 46.08041627 48 42 C49.41190564 39.39562767 49.41190564 39.39562767 50 37 C51.32 37 52.64 37 54 37 C54 45.91 54 54.82 54 64 C52.68 64 51.36 64 50 64 C49.566875 62.88625 49.13375 61.7725 48.6875 60.625 C47.30088881 56.82487666 47.30088881 56.82487666 44 55 C38.78218146 53.80259787 33.45495948 53.682603 28.125 53.4375 C26.49722159 53.35969634 24.86945542 53.28163609 23.24169922 53.20336914 C22.44110077 53.16498428 21.64050232 53.12659943 20.81564331 53.08705139 C20.21648102 53.05832443 19.61731873 53.02959747 19 53 C19.09373716 58.32053644 19.19987618 63.6406287 19.31738281 68.96069336 C19.35560367 70.76954418 19.3904685 72.57846921 19.421875 74.38745117 C19.46767557 76.99164302 19.52564474 79.595327 19.5859375 82.19921875 C19.59748871 83.00461594 19.60903992 83.81001312 19.62094116 84.63981628 C19.71809128 91.34966855 19.71809128 91.34966855 23 97 C26.88835778 97.28204376 30.79014146 97.23188328 34.6875 97.25 C35.77740234 97.270625 36.86730469 97.29125 37.99023438 97.3125 C45.99966886 97.46808362 45.99966886 97.46808362 53 94 C54.54145947 91.55698582 55.72529507 89.41762684 56.875 86.8125 C57.18179688 86.15830078 57.48859375 85.50410156 57.8046875 84.83007812 C58.55321024 83.22777163 59.27896496 81.6148625 60 80 C61.32 80.33 62.64 80.66 64 81 C63.88545196 83.87575868 63.7587153 86.75012112 63.625 89.625 C63.57859375 90.83736328 63.57859375 90.83736328 63.53125 92.07421875 C63.49257813 92.86699219 63.45390625 93.65976562 63.4140625 94.4765625 C63.3826416 95.19924316 63.3512207 95.92192383 63.31884766 96.66650391 C63 99 63 99 61 105 C40.87 105 20.74 105 0 105 C1.02408355 99.87958226 1.42074018 99.24370421 5 96 C6.56191509 92.87616982 6.13838478 89.55412736 6.12939453 86.12548828 C6.13202301 84.90573807 6.13202301 84.90573807 6.13470459 83.66134644 C6.13911763 80.96431362 6.13618648 78.26734602 6.1328125 75.5703125 C6.13348583 73.69945259 6.1344561 71.82859276 6.13571167 69.95773315 C6.13718801 66.03187224 6.13503662 62.10603405 6.13037109 58.18017578 C6.12468171 53.14730578 6.1279482 48.1144892 6.13394356 43.08162117 C6.1375576 39.21605019 6.13640656 35.35049186 6.13381577 31.4849205 C6.13314843 29.62936268 6.1339682 27.77380371 6.13629532 25.91824722 C6.13883476 23.32323416 6.1349626 20.72830742 6.12939453 18.13330078 C6.13141876 17.36536194 6.13344299 16.5974231 6.13552856 15.80621338 C6.21235263 10.79425605 6.21235263 10.79425605 5 6 C2.50965614 4.70339566 2.50965614 4.70339566 0 4 C0 2.68 0 1.36 0 0 Z " fill="#251874" transform="translate(280,191)"/>
<path d="M0 0 C5.06179898 3.70310557 8.4392263 8.05423384 11.2265625 13.62890625 C11.2265625 17.58890625 11.2265625 21.54890625 11.2265625 25.62890625 C-3.9534375 25.62890625 -19.1334375 25.62890625 -34.7734375 25.62890625 C-33.81990035 37.07135207 -32.73507517 44.66726858 -24.7734375 52.62890625 C-19.22538073 56.78994883 -12.40433089 56.49521344 -5.7734375 55.62890625 C-0.50125804 53.61136356 3.04158482 50.27366536 6.2265625 45.62890625 C7.8765625 45.95890625 9.5265625 46.28890625 11.2265625 46.62890625 C9.04652048 54.55633178 5.09118444 61.05249162 -1.7734375 65.62890625 C-10.10037288 68.64383113 -20.20781576 69.12263224 -28.546875 65.84765625 C-38.74186234 60.26724213 -43.07194273 52.43055051 -46.37890625 41.65625 C-48.41414732 31.19793205 -46.65388657 20.93811959 -41.0859375 11.94140625 C-31.38977431 -1.575905 -15.60381526 -8.92009635 0 0 Z " fill="#231673" transform="translate(501.7734375,345.37109375)"/>
<path d="M0 0 C0.57234375 0.36222656 1.1446875 0.72445312 1.734375 1.09765625 C6.22865242 4.37936872 8.1054455 7.89927635 10 13 C10 16.63 10 20.26 10 24 C-5.51 24 -21.02 24 -37 24 C-34.69013456 39.96213195 -34.69013456 39.96213195 -25 52 C-19.23403862 55.15496 -14.04192218 56.17278571 -7.73828125 54.34375 C-1.9444398 52.06162569 1.93437207 48.65390206 6 44 C6.99 44.33 7.98 44.66 9 45 C8.8356442 51.40987627 5.28056948 55.56421903 1 60 C-7.45610944 66.43333506 -15.62378432 67.08684645 -26 66 C-33.62137705 63.94587571 -38.41943653 59.2311017 -43 53 C-43.8971875 51.7934375 -43.8971875 51.7934375 -44.8125 50.5625 C-49.46109499 40.53132133 -49.68736615 27.66677139 -46.03515625 17.3046875 C-42.06763702 8.4713428 -36.06669548 2.2054604 -27.9375 -2.9375 C-19.02767549 -6.21467683 -7.92435568 -5.07758084 0 0 Z " fill="#221472" transform="translate(490,233)"/>
<path d="M0 0 C9.24 0 18.48 0 28 0 C28 1.32 28 2.64 28 4 C27.21625 4.556875 26.4325 5.11375 25.625 5.6875 C21.94689075 8.9277391 21.59604183 12.31906466 21 17 C20.7085269 22.43832278 20.69360266 27.86843852 20.69921875 33.3125 C20.69532388 34.89233511 20.6909876 36.47216919 20.68623352 38.05200195 C20.67880603 41.35013232 20.67903781 44.64815557 20.68432617 47.94628906 C20.69012481 52.15243827 20.67316357 56.35814769 20.6499815 60.56422424 C20.63518439 63.82265748 20.6343804 67.08098613 20.63749123 70.33944702 C20.6369813 71.88944369 20.63180593 73.43944673 20.62167931 74.9894104 C20.57475989 83.17178865 20.7595857 90.36566744 24 98 C27.49989235 98.11231793 30.99884288 98.18763842 34.5 98.25 C35.48226562 98.28351563 36.46453125 98.31703125 37.4765625 98.3515625 C43.72368932 98.43485752 49.01612768 98.08558156 54 94 C55.75699665 91.73155809 56.89092564 89.3860608 58 86.75 C58.29777344 86.1003125 58.59554687 85.450625 58.90234375 84.78125 C59.62427504 83.19765878 60.31546094 81.60011006 61 80 C62.65 80 64.3 80 66 80 C65.88352377 82.27128649 65.75629385 84.54202187 65.625 86.8125 C65.55539062 88.07707031 65.48578125 89.34164062 65.4140625 90.64453125 C64.92369602 95.80263151 63.92686927 100.90221902 63 106 C42.54 106 22.08 106 1 106 C1 101 1 101 3.4375 98.25 C4.283125 97.5075 5.12875 96.765 6 96 C7.9972299 94.0027701 7.15718162 89.99071249 7.16113281 87.25488281 C7.16609772 86.44346832 7.17106262 85.63205383 7.17617798 84.79605103 C7.19084137 82.09840053 7.1976095 79.40080889 7.203125 76.703125 C7.20887427 74.83323158 7.21463202 72.96333819 7.22039795 71.09344482 C7.23092068 67.16580937 7.23675459 63.23819445 7.24023438 59.31054688 C7.24571318 54.27876734 7.26972271 49.24725923 7.29820633 44.21556473 C7.31683815 40.34994721 7.32203866 36.48439489 7.32357025 32.61873627 C7.32659751 30.76398998 7.33462851 28.90924485 7.34775543 27.05454254 C7.36482276 24.45705117 7.36293377 21.86022012 7.35644531 19.26269531 C7.37026749 18.11382339 7.37026749 18.11382339 7.3843689 16.94174194 C7.34926006 12.4518104 6.78603071 9.56461522 4 6 C1.93299345 4.67206394 1.93299345 4.67206394 0 4 C0 2.68 0 1.36 0 0 Z " fill="#241773" transform="translate(279,305)"/>
<path d="M0 0 C4.9930671 3.53950882 8.37029805 8.13443872 9.96557617 14.09399414 C10.51410224 17.82092584 10.53422139 21.51517252 10.5546875 25.2734375 C10.57787909 26.91602853 10.60199615 28.55860672 10.62695312 30.20117188 C10.66206868 32.77295655 10.69142929 35.34426433 10.70483398 37.91625977 C10.72035531 40.4108942 10.76057454 42.90416579 10.8046875 45.3984375 C10.80277908 46.16111435 10.80087067 46.9237912 10.79890442 47.70957947 C10.91599904 52.85162438 12.00262151 55.81189804 15.37890625 59.90234375 C16.36890625 60.39734375 16.36890625 60.39734375 17.37890625 60.90234375 C17.04890625 62.88234375 16.71890625 64.86234375 16.37890625 66.90234375 C8.61104911 67.57198661 8.61104911 67.57198661 5.06640625 64.65234375 C2.94118944 62.4777033 1.06128909 60.42591802 -0.62109375 57.90234375 C-1.17796875 58.80984375 -1.73484375 59.71734375 -2.30859375 60.65234375 C-4.9228092 64.32637628 -7.57957053 66.88158214 -11.62109375 68.90234375 C-18.43964501 69.66273064 -23.16687413 69.15663505 -28.62109375 64.90234375 C-32.25353864 60.74173922 -33.30271759 56.49689346 -32.98828125 51.03125 C-32.03036713 45.47738619 -28.46788621 42.57918683 -24.18359375 39.33984375 C-17.32668597 34.76178959 -9.05562888 30.3878527 -0.62109375 30.90234375 C-0.73565503 28.50560108 -0.86238094 26.11053157 -0.99609375 23.71484375 C-1.02703125 23.04130859 -1.05796875 22.36777344 -1.08984375 21.67382812 C-1.32134913 17.71894453 -1.7880159 14.43662335 -3.62109375 10.90234375 C-7.97056929 8.04800043 -13.61551536 8.14190928 -18.62109375 8.90234375 C-21.84300255 10.2661901 -24.72625666 11.94448292 -27.62109375 13.90234375 C-29.62109375 10.90234375 -29.62109375 10.90234375 -29.453125 8.91015625 C-28.4515879 6.49330147 -27.32598793 5.42754627 -25.30859375 3.77734375 C-24.71433594 3.27976562 -24.12007813 2.7821875 -23.5078125 2.26953125 C-17.01197291 -2.43759889 -7.42862151 -3.11094284 0 0 Z " fill="#231673" transform="translate(382.62109375,344.09765625)"/>
<path d="M0 0 C1.32 0.33 2.64 0.66 4 1 C4 4.63 4 8.26 4 12 C4.845625 10.9275 5.69125 9.855 6.5625 8.75 C10.713739 4.02353157 13.99920562 1.4113127 20.27734375 0.55078125 C25.88175444 0.28162599 30.78021493 0.17468756 35.5625 3.375 C43.58190817 11.28602204 44.50373507 19.25095514 44.63627625 30.07785034 C44.64861306 33.01048301 44.63947014 35.94238481 44.625 38.875 C44.62114832 41.83405615 44.62458051 44.7925075 44.64559937 47.75149536 C44.65766507 49.58338801 44.65505789 51.41545179 44.63589478 53.24728394 C44.64362609 58.07764347 44.64362609 58.07764347 46.33349609 62.52783203 C48.04341035 64.23173943 48.04341035 64.23173943 51 65 C51 66.32 51 67.64 51 69 C42.75 69 34.5 69 26 69 C26 67.68 26 66.36 26 65 C27.66666667 63.33333333 29.33333333 61.66666667 31 60 C32.32347444 55.6363271 32.17809076 51.11676123 32.203125 46.59375 C32.21167511 45.39026917 32.21167511 45.39026917 32.22039795 44.16247559 C32.22981402 42.47144884 32.23636838 40.78040402 32.24023438 39.08935547 C32.24996808 36.50846465 32.28103398 33.92836144 32.3125 31.34765625 C32.31902829 29.70052554 32.32427944 28.05338916 32.328125 26.40625 C32.3404718 25.63841187 32.3528186 24.87057373 32.36553955 24.07946777 C32.34669422 19.53154551 31.81204726 16.61788382 29 13 C24.73982609 10.08932217 19.95762724 10.3965292 15 11 C10.04813874 12.56325299 7.27920082 15.48849379 4.81393433 20.0241394 C3.45407359 23.32525985 3.44844831 26.62078748 3.50390625 30.12890625 C3.50245102 30.88163315 3.50099579 31.63436005 3.49949646 32.40989685 C3.50114633 33.99067075 3.51260476 35.57146226 3.53344727 37.15209961 C3.56246723 39.55978113 3.55402536 41.96526446 3.54101562 44.37304688 C3.54725258 45.91667727 3.55564319 47.46030078 3.56640625 49.00390625 C3.56347061 49.71656143 3.56053497 50.42921661 3.55751038 51.16346741 C3.64472647 55.82317518 4.50743568 59.05902895 7 63 C8.485 63.99 8.485 63.99 10 65 C10 66.32 10 67.64 10 69 C2.08 69 -5.84 69 -14 69 C-12.89070408 63.45352039 -12.92965752 63.94724314 -9 61 C-7.7539173 56.75034806 -7.83878202 52.42383014 -7.83203125 48.03125 C-7.82870285 47.27332153 -7.82537445 46.51539307 -7.82194519 45.73449707 C-7.81689972 44.13762008 -7.81453613 42.54073261 -7.81469727 40.94384766 C-7.81250716 38.50796122 -7.79431667 36.07252542 -7.77539062 33.63671875 C-7.77245688 32.08073071 -7.77047196 30.52474052 -7.76953125 28.96875 C-7.76234573 28.24465942 -7.75516022 27.52056885 -7.74775696 26.77453613 C-7.76579839 22.76230997 -8.04466494 19.54443407 -10 16 C-12.52372901 14.63921965 -12.52372901 14.63921965 -15 14 C-15 12.68 -15 11.36 -15 10 C-12.48046875 8.18359375 -12.48046875 8.18359375 -9.1875 6.4375 C-4.940374 4.27034213 -4.940374 4.27034213 -1.36328125 1.22265625 C-0.91339844 0.81917969 -0.46351563 0.41570312 0 0 Z " fill="#231572" transform="translate(519,188)"/>
<path d="M0 0 C7.59 0 15.18 0 23 0 C23 1.32 23 2.64 23 4 C22.01 4.66 21.02 5.32 20 6 C18.77243009 14.62026871 22.26170061 21.91564424 25.4375 29.75 C26.21607426 31.70500601 26.99024534 33.66164092 27.76051331 35.61993408 C28.45787713 37.38750913 29.16695966 39.15044764 29.87670898 40.91308594 C30.86384097 43.6258216 31.53355532 46.15823469 32 49 C32.66 49 33.32 49 34 49 C34.16870605 48.47067871 34.33741211 47.94135742 34.51123047 47.39599609 C36.47235718 41.36589171 38.73594486 35.497 41.125 29.625 C41.83667792 27.86748714 42.54764719 26.10968711 43.2578125 24.3515625 C43.5686377 23.58666504 43.87946289 22.82176758 44.19970703 22.03369141 C45.57152569 18.54764827 46.18335156 15.73231267 46.25 12 C46.28867187 10.700625 46.28867187 10.700625 46.328125 9.375 C45.93112909 6.50150578 45.02229297 5.95843108 43 4 C43 2.68 43 1.36 43 0 C49.6 0 56.2 0 63 0 C62.07852994 4.60735031 61.19874807 6.65393262 58.79296875 10.50390625 C55.03676814 16.77761126 52.13315686 23.20148375 49.3125 29.9375 C48.19727617 32.55664581 47.07487634 35.17270688 45.953125 37.7890625 C45.65165054 38.49402359 45.35017609 39.19898468 45.03956604 39.92530823 C41.05205202 49.23880386 36.98675754 58.51803409 32.89559937 67.78640747 C32.01321302 69.78939599 31.13411351 71.79383599 30.25845337 73.79977417 C29.01500998 76.64748833 27.76069148 79.49018467 26.50390625 82.33203125 C26.13863831 83.17474579 25.77337036 84.01746033 25.39703369 84.88571167 C21.21497674 94.27119494 16.61362722 101.25758185 8 107 C4.08945759 107.42660463 1.87969422 107.58646281 -1.4375 105.375 C-3.44814771 102.31881548 -3.53520313 100.59350675 -3 97 C-1.8125 95.3125 -1.8125 95.3125 0 94 C2.81733485 93.83225029 5.49683423 94.06710143 8.30859375 94.28515625 C11.88477013 93.90625803 12.67219873 92.68766554 15 90 C17.21077204 86.19598389 18.97756081 82.18427913 20.8125 78.1875 C21.32748047 77.11951172 21.84246094 76.05152344 22.37304688 74.95117188 C22.85451172 73.90896484 23.33597656 72.86675781 23.83203125 71.79296875 C24.27264893 70.8496167 24.7132666 69.90626465 25.16723633 68.93432617 C26.96609096 62.59588179 24.4177483 56.90504836 22.015625 51.08203125 C21.71815369 50.34353439 21.42068237 49.60503754 21.11419678 48.84416199 C20.16674906 46.49724718 19.20853193 44.15490635 18.25 41.8125 C17.62169296 40.26004991 16.99408293 38.70731753 16.3671875 37.15429688 C14.86517584 33.43979436 13.35128983 29.73032158 11.82998657 26.02368164 C11.0534012 24.13020333 10.28082432 22.23508238 9.50854492 20.33984375 C9.07131104 19.27507812 8.63407715 18.2103125 8.18359375 17.11328125 C7.81032959 16.20231689 7.43706543 15.29135254 7.05249023 14.3527832 C5.26629575 10.35984507 3.10523625 7.10523625 0 4 C0 2.68 0 1.36 0 0 Z " fill="#251774" transform="translate(410,306)"/>
<path d="M0 0 C8.91 0 17.82 0 27 0 C27 18.15 27 36.3 27 55 C18.09 55 9.18 55 0 55 C0 36.85 0 18.7 0 0 Z " fill="#1B0D6D" transform="translate(196,190)"/>
<path d="M0 0 C1.32 0.33 2.64 0.66 4 1 C4.33 4.3 4.66 7.6 5 11 C6.546875 9.1128125 6.546875 9.1128125 8.125 7.1875 C12.21591525 2.55550177 15.78382927 -0.02968759 22.0625 -0.5 C26 0 26 0 29 2.125 C31.31867116 5.4580898 31.61829563 7.02524236 31 11 C29 13 29 13 25.5 13.1875 C22 13 22 13 20 12 C14.09940926 11.34589779 14.09940926 11.34589779 9.125 14.1875 C5.0315886 19.60525038 4.70085204 24.09503407 4.734375 30.66015625 C4.73246155 31.48704453 4.7305481 32.3139328 4.72857666 33.1658783 C4.72721966 34.90819606 4.73088215 36.6505241 4.73925781 38.39282227 C4.74997801 41.05703433 4.73933922 43.72057423 4.7265625 46.38476562 C4.72788391 48.08073065 4.73044593 49.77669526 4.734375 51.47265625 C4.73032654 52.26752945 4.72627808 53.06240265 4.72210693 53.88136292 C4.70233716 59.28085722 4.70233716 59.28085722 7 64 C9.55519921 64.81171228 9.55519921 64.81171228 12 65 C12 66.32 12 67.64 12 69 C3.42 69 -5.16 69 -14 69 C-14 67.68 -14 66.36 -14 65 C-12.34997172 63.64613064 -10.6825613 62.31321858 -9 61 C-7.59505313 56.93144483 -7.81954668 52.69461847 -7.796875 48.4375 C-7.79117493 47.60919678 -7.78547485 46.78089355 -7.77960205 45.92749023 C-7.77017304 44.17921214 -7.76362643 42.43091644 -7.75976562 40.68261719 C-7.75003441 38.00945216 -7.71898161 35.33704808 -7.6875 32.6640625 C-7.68097188 30.96354622 -7.67572066 29.26302446 -7.671875 27.5625 C-7.6595282 26.76448975 -7.6471814 25.96647949 -7.63446045 25.14428711 C-7.64776907 21.82910193 -7.75506105 19.44044068 -9.38378906 16.51171875 C-11.23153317 14.78343605 -12.51641384 14.34256361 -15 14 C-15 12.68 -15 11.36 -15 10 C-14.25234375 9.61328125 -13.5046875 9.2265625 -12.734375 8.828125 C-11.74953125 8.30734375 -10.7646875 7.7865625 -9.75 7.25 C-8.77546875 6.73953125 -7.8009375 6.2290625 -6.796875 5.703125 C-3.93124103 4.13111295 -3.93124103 4.13111295 -1.890625 1.734375 C-1.26671875 1.16203125 -0.6428125 0.5896875 0 0 Z " fill="#261874" transform="translate(539,342)"/>
<path d="M0 0 C1.0415625 -0.00386719 2.083125 -0.00773437 3.15625 -0.01171875 C4.24421875 -0.00011719 5.3321875 0.01148438 6.453125 0.0234375 C7.525625 0.01183594 8.598125 0.00023437 9.703125 -0.01171875 C17.10522082 0.01562889 22.4037034 0.59392914 28.203125 5.5234375 C30.07147335 9.10443851 30.02510144 11.32061105 29.37890625 15.25 C28.00778899 19.60904332 24.79466135 21.63436205 21.203125 24.1484375 C14.18822779 27.65588611 5.35084965 27.08604511 -2.296875 26.3984375 C-6.35739882 24.95853544 -9.21651656 23.17742774 -11.46875 19.46875 C-12.80060317 16.13911708 -12.85525866 12.89001725 -12.296875 9.3984375 C-10.484375 6.0859375 -10.484375 6.0859375 -8.296875 3.3984375 C-7.86600586 2.85622559 -7.43513672 2.31401367 -6.99121094 1.75537109 C-4.6316928 -0.13428335 -2.99796569 0.01073257 0 0 Z " fill="#F9F9FB" transform="translate(402.296875,264.6015625)"/>
<path d="M0 0 C2 2 2 2 2.265625 3.84765625 C2.21352109 11.23338546 1.03228514 17.69300473 -1.8203125 24.51953125 C-4.18520656 30.34630772 -6.16615153 36.27662939 -8.125 42.25 C-8.47175781 43.29929687 -8.81851562 44.34859375 -9.17578125 45.4296875 C-9.8348998 47.42472065 -10.49285763 49.42013782 -11.14941406 51.41601562 C-12.09212222 54.27985695 -13.04361303 57.14069875 -14 60 C-10.13961564 57.91093035 -7.53447389 55.64201183 -4.6875 52.3125 C-3.99011719 51.50425781 -3.29273438 50.69601562 -2.57421875 49.86328125 C-2.05472656 49.24839844 -1.53523438 48.63351562 -1 48 C0.485 48.495 0.485 48.495 2 49 C0.19745876 56.81101205 -5.46862973 63.5213461 -12 68 C-15.0832635 69.54163175 -17.60878099 69.29747535 -21 69 C-22.9375 67.4375 -22.9375 67.4375 -24 65 C-24.27426028 60.11348008 -23.71955911 56.30597549 -22.13671875 51.69140625 C-21.74419922 50.53189453 -21.35167969 49.37238281 -20.94726562 48.17773438 C-20.53154297 46.98470703 -20.11582031 45.79167969 -19.6875 44.5625 C-19.28337891 43.37333984 -18.87925781 42.18417969 -18.46289062 40.95898438 C-16.40532763 34.93350315 -14.25837547 28.95267327 -12 23 C-11.44676251 21.42067245 -10.90244393 19.83812787 -10.375 18.25 C-10.13523437 17.53328125 -9.89546875 16.8165625 -9.6484375 16.078125 C-9.02052721 14.06578599 -8.48940915 12.04997796 -8 10 C-13.52289491 12.23545746 -16.44984265 15.40493818 -20 20 C-20.99 19.34 -21.98 18.68 -23 18 C-21.54708607 13.37631507 -18.88294186 10.28049337 -15.625 6.8125 C-15.14289063 6.27947266 -14.66078125 5.74644531 -14.1640625 5.19726562 C-9.46036977 0.11651057 -6.8698798 -1.79214256 0 0 Z " fill="#241773" transform="translate(373,228)"/>
<path d="M0 0 C5.08643801 2.73885123 8.17004027 5.5101208 10 11 C10.17529842 13.93121943 10.27713801 16.81731227 10.3125 19.75 C10.34150391 20.53632813 10.37050781 21.32265625 10.40039062 22.1328125 C10.46289893 27.92204292 9.44053997 31.30013805 6 36 C2.08120684 38.8091151 -2.36183742 38.63172107 -7 38 C-11.85089012 35.62845372 -13.5050149 31.66629018 -15.2734375 26.78515625 C-17.02419961 20.0739015 -16.85467375 13.12089459 -14.0390625 6.7265625 C-10.70631701 1.18869217 -6.52002408 -1.04786101 0 0 Z " fill="#F9F9FB" transform="translate(414,196)"/>
<path d="M0 0 C5.14540735 1.74749684 8.0326877 4.46175766 11 9 C11 11.31 11 13.62 11 16 C0.44 16 -10.12 16 -21 16 C-20.02824352 10.16946113 -19.79488229 9.14935968 -16.0625 5.1875 C-15.35222656 4.41792969 -14.64195312 3.64835937 -13.91015625 2.85546875 C-9.88951461 -1.0500625 -5.32473931 -0.44304457 0 0 Z " fill="#F2F1F7" transform="translate(489,349)"/>
<path d="M0 0 C3.85738114 1.26327543 6.35340349 3.20739783 8.9375 6.375 C10 9 10 9 10 15 C-0.56 15 -11.12 15 -22 15 C-20.83121724 9.15608618 -18.77798297 6.11135478 -15 1.625 C-10.16165098 -0.99577238 -5.37358634 -0.70461596 0 0 Z " fill="#F8F7FA" transform="translate(477,236)"/>
<path d="M0 0 C1.06520702 12.03853009 1.06520702 12.03853009 -1.453125 16.67578125 C-4.6616668 20.36290807 -7.1079104 22.77832468 -12.19140625 23.16796875 C-12.97386719 23.17441406 -13.75632812 23.18085938 -14.5625 23.1875 C-15.74005859 23.20876953 -15.74005859 23.20876953 -16.94140625 23.23046875 C-19 23 -19 23 -21 21 C-21.3359375 19.01171875 -21.3359375 19.01171875 -21.375 16.6875 C-21.40335937 15.92824219 -21.43171875 15.16898437 -21.4609375 14.38671875 C-20.80309757 10.9804459 -19.43339402 9.46091221 -17 7 C-14.63715729 5.57457447 -12.41543015 4.35313069 -9.9375 3.1875 C-9.31294922 2.87619141 -8.68839844 2.56488281 -8.04492188 2.24414062 C-5.1783124 0.85213709 -3.22550336 0 0 0 Z " fill="#F7F7FA" transform="translate(382,380)"/>
<path d="M0 0 C4.0743356 0.84881992 5.54405875 2.30225596 8 5.625 C8.625 8.625 8.625 8.625 8 11.625 C5.54405875 14.94774404 4.0743356 16.40118008 0 17.25 C-4.0743356 16.40118008 -5.54405875 14.94774404 -8 11.625 C-8.625 8.625 -8.625 8.625 -8 5.625 C-5.54405875 2.30225596 -4.0743356 0.84881992 0 0 Z " fill="#251874" transform="translate(374,185.375)"/>
</svg>
